M48
;Layer_Color=9474304
;FILE_FORMAT=2:5
INCH,LZ
;TYPE=PLATED
T1F00S00C0.02800
T2F00S00C0.03543
T3F00S00C0.03937
T5F00S00C0.12000
%
T01
X03813Y00795
X04168Y01362
X0385Y01715
X0348Y00605
X02605Y00485
X01861Y01595
X0183Y01647
X0184Y01729
X01834Y01837
X01847Y01929
X01808Y01987
X0190239Y01796
X01672Y0142
T02
X0376Y01825
X0386
X0396
X0406
X0416
X0366
X0356
X0346
X0336
X0326
X0316
X0306
X01125Y02365
X01025
X00925
X00825
X00725
Y02465
X00825
X00925
X01025
X01125
T03
X0076657Y0062472
X00865
X0096343
Y0119559
X0076657
T05
X003Y00235
X0454
X003Y02575
X0454
M30
