M48
;Layer_Color=9474304
;FILE_FORMAT=2:5
INCH,LZ
;TYPE=PLATED
T1F00S00C0.02800
T2F00S00C0.03543
T3F00S00C0.04252
T4F00S00C0.04331
T5F00S00C0.05000
T6F00S00C0.05512
T7F00S00C0.12000
%
T01
X017722Y0061
X0182311Y0060689
X02835Y0058
X02875Y00695
X02765Y0072
X02764Y00213
X029Y0012
X03085Y0025
X0339Y0061
X04205Y012
X0429Y01355
X0454Y01405
X05355Y02935
X0459Y0183
X0445Y01615
X03305Y02655
X03065Y02585
X0283Y02205
X0264Y02275
X0266Y01875
X0288Y0199
X0215Y02105
X0191808Y0207808
X0215Y0255
X0206Y02875
X01735Y02955
X01805Y0271
X0135Y0255
X01155Y0271
X007Y02955
X01054Y03185
X02745Y0323
X028Y0329
X02885Y03485
X0307Y03745
X0254Y04255
X0508Y0381
X03175Y0709
T02
X03555Y01995
Y02095
Y02195
Y02295
Y02395
X0355Y0266
Y0276
Y0286
X0394Y0295
Y0305
X02585Y02115
X02485
X0164Y0255
Y0265
Y0275
X0163Y0319
Y0329
Y0339
Y0349
Y0359
X0173
Y0349
Y0339
Y0329
Y0319
X0238Y0352
X0248
X0258
X0345Y0354
X0355
Y0344
X0345
Y0334
X0355
X0394Y0325
Y0315
T03
X0115Y0515421
Y0525657
Y05355
T04
X0411Y003
X0431
X05295Y06625
Y06825
X0528Y07815
Y08015
X01675Y0803
X01475
T05
X05145Y02595
X044Y03995
X03855Y0403
X0381Y04645
X0469Y0441
X04605Y0578
X0399Y05865
X03835Y0623563
X035Y0545
X0352Y04925
X02165Y05115
Y05655
X03345Y06555
X03425Y0759
X04355Y0721521
X0443374Y0666374
X04525Y06305
X04935Y07035
T06
X0505972Y0458421
X05355
Y05185
Y0538342
Y0558185
X0505972
Y0538342
Y05185
T07
X00365Y00265
X05925
Y07835
X00365
M30
