M48
;Layer_Color=9474304
;FILE_FORMAT=2:4
INCH,LZ
;TYPE=PLATED
T1F00S00C0.0280
T2F00S00C0.0315
T3F00S00C0.0354
T4F00S00C0.0394
T5F00S00C0.0425
T6F00S00C0.0433
T7F00S00C0.0500
T8F00S00C0.0551
T10F00S00C0.1200
%
T01
X0393Y01046
X04512Y00785
X04975Y01046
X0484Y01845
X0469Y01895
X0352Y01213
X02701Y00918
X02652Y0175
X02655Y01925
X02735Y01895
X02655Y0205
X01775Y03511
X024581Y036481
X02974Y03438
X0311Y03345
X03295Y03475
X03034Y02381
X0294Y02292
X02652Y0213
X02499Y0218
X02459Y02228
X04415Y04425
X045Y0458
X0475Y0463
X0466Y0484
X048Y05055
X0309Y05215
X0287Y051
X02844Y048122
X02975Y03945
X03085Y0392
X03045Y03805
X036Y03835
X02245Y03855
X020331Y038319
X019822Y03835
X02015Y05935
X01945Y0618
X0156Y05775
X01365Y05935
X01264Y0641
X0091Y0618
X0227Y061
X0252Y0612
X0236Y05775
Y0533
X021281Y053031
X0285Y055
X0304Y0543
X03275Y0581
X03515Y0588
X0311Y06335
X02955Y06455
X0301Y06515
X03095Y0671
X0387Y06535
X05565Y0616
X0529Y07035
X0328Y0697
X0275Y0748
X02197Y06955
X03385Y10315
T02
X0231Y09345
Y097387
T03
X039Y02005
X04
X041
X042
X043
X044
X045
X046
X047
X048
X049
X05
X01965Y02545
X01865
X01765
X01665
X01565
Y02645
X01665
X01765
X01865
X01965
X03765Y0522
X0185Y05775
Y05875
Y05975
X0184Y06415
Y06515
Y06615
Y06715
X0194
Y06615
Y06515
Y06415
X0259Y06745
X0269
X0279
X0366Y06765
Y06665
Y06565
X02795Y0534
X02695
X03765Y0532
Y0542
Y0552
Y0562
X0376Y05885
Y05985
Y06085
Y06565
Y06665
Y06765
X0415Y06475
Y06375
Y06275
Y06175
X0194Y06815
X0184
T04
X016066Y008047
X01705
X018034
Y013756
X016066
T05
X0136Y083792
Y084816
Y0858
T06
X0432Y03525
X0452
X05505Y0985
Y1005
X0549Y1104
Y1124
X01885Y11255
X01685
T07
X05355Y0582
X0461Y0722
X04065Y07255
X0402Y0787
X0373Y0815
X02375Y0834
Y0888
X03555Y0978
X04045Y094606
X042Y0909
X04815Y09005
X04735Y0953
X046437Y098887
X0371Y08675
X04565Y104402
X05145Y1026
X03635Y10815
T08
X052697Y078092
X05565
Y0841
Y086084
Y088069
X052697
Y086084
Y0841
T10
X0114Y00415
X0538
X0114Y02755
X00575Y0349
X0538Y02755
X06135Y0349
Y1106
X00575
M30
