G04*
G04 #@! TF.GenerationSoftware,Altium Limited,Altium Designer,23.4.1 (23)*
G04*
G04 Layer_Color=8388736*
%FSLAX25Y25*%
%MOIN*%
G70*
G04*
G04 #@! TF.SameCoordinates,4704FA20-ACEE-4373-A647-A7C3691A48C7*
G04*
G04*
G04 #@! TF.FilePolarity,Negative*
G04*
G01*
G75*
%ADD11R,0.05339X0.04349*%
%ADD12R,0.04349X0.05339*%
%ADD19R,0.05136X0.05733*%
G04:AMPARAMS|DCode=21|XSize=9.94mil|YSize=65.17mil|CornerRadius=4.97mil|HoleSize=0mil|Usage=FLASHONLY|Rotation=0.000|XOffset=0mil|YOffset=0mil|HoleType=Round|Shape=RoundedRectangle|*
%AMROUNDEDRECTD21*
21,1,0.00994,0.05523,0,0,0.0*
21,1,0.00000,0.06517,0,0,0.0*
1,1,0.00994,0.00000,-0.02761*
1,1,0.00994,0.00000,-0.02761*
1,1,0.00994,0.00000,0.02761*
1,1,0.00994,0.00000,0.02761*
%
%ADD21ROUNDEDRECTD21*%
G04:AMPARAMS|DCode=22|XSize=65.17mil|YSize=9.94mil|CornerRadius=4.97mil|HoleSize=0mil|Usage=FLASHONLY|Rotation=0.000|XOffset=0mil|YOffset=0mil|HoleType=Round|Shape=RoundedRectangle|*
%AMROUNDEDRECTD22*
21,1,0.06517,0.00000,0,0,0.0*
21,1,0.05523,0.00994,0,0,0.0*
1,1,0.00994,0.02761,0.00000*
1,1,0.00994,-0.02761,0.00000*
1,1,0.00994,-0.02761,0.00000*
1,1,0.00994,0.02761,0.00000*
%
%ADD22ROUNDEDRECTD22*%
%ADD23R,0.06517X0.00994*%
%ADD25R,0.05733X0.05136*%
%ADD46R,0.06102X0.06102*%
%ADD47C,0.06102*%
G04:AMPARAMS|DCode=48|XSize=94.49mil|YSize=196.85mil|CornerRadius=47.24mil|HoleSize=0mil|Usage=FLASHONLY|Rotation=0.000|XOffset=0mil|YOffset=0mil|HoleType=Round|Shape=RoundedRectangle|*
%AMROUNDEDRECTD48*
21,1,0.09449,0.10236,0,0,0.0*
21,1,0.00000,0.19685,0,0,0.0*
1,1,0.09449,0.00000,-0.05118*
1,1,0.09449,0.00000,-0.05118*
1,1,0.09449,0.00000,0.05118*
1,1,0.09449,0.00000,0.05118*
%
%ADD48ROUNDEDRECTD48*%
%ADD58R,0.04343X0.03950*%
%ADD59R,0.04383X0.05603*%
%ADD60R,0.12217X0.05131*%
%ADD61R,0.07493X0.06706*%
%ADD62R,0.06706X0.07493*%
%ADD63O,0.07493X0.02572*%
%ADD64O,0.02572X0.07493*%
%ADD65R,0.05131X0.12217*%
%ADD66R,0.05603X0.04383*%
%ADD67R,0.23044X0.27965*%
%ADD68R,0.04737X0.12020*%
%ADD69R,0.17611X0.07808*%
G04:AMPARAMS|DCode=70|XSize=31.62mil|YSize=72.96mil|CornerRadius=6.01mil|HoleSize=0mil|Usage=FLASHONLY|Rotation=90.000|XOffset=0mil|YOffset=0mil|HoleType=Round|Shape=RoundedRectangle|*
%AMROUNDEDRECTD70*
21,1,0.03162,0.06095,0,0,90.0*
21,1,0.01961,0.07296,0,0,90.0*
1,1,0.01202,0.03047,0.00980*
1,1,0.01202,0.03047,-0.00980*
1,1,0.01202,-0.03047,-0.00980*
1,1,0.01202,-0.03047,0.00980*
%
%ADD70ROUNDEDRECTD70*%
%ADD71C,0.05524*%
%ADD72C,0.20800*%
%ADD73C,0.09068*%
%ADD74C,0.07296*%
%ADD75R,0.07296X0.07296*%
%ADD76C,0.06780*%
%ADD77R,0.07296X0.07296*%
%ADD78R,0.06706X0.06706*%
%ADD79C,0.06706*%
%ADD80R,0.06706X0.06706*%
%ADD81C,0.05800*%
%ADD82C,0.06800*%
D11*
X490500Y678018D02*
D03*
Y672500D02*
D03*
X388500Y1109018D02*
D03*
Y1103500D02*
D03*
Y996982D02*
D03*
Y1002500D02*
D03*
Y1050259D02*
D03*
Y1044741D02*
D03*
X497500Y116982D02*
D03*
Y122500D02*
D03*
X462000Y78500D02*
D03*
Y84018D02*
D03*
X459500Y136982D02*
D03*
Y142500D02*
D03*
D12*
X554518Y637000D02*
D03*
X549000D02*
D03*
X262259Y780000D02*
D03*
X256741D02*
D03*
X340000Y781000D02*
D03*
X334482D02*
D03*
X340500Y418000D02*
D03*
X346018D02*
D03*
X346518Y447000D02*
D03*
X341000D02*
D03*
X302759Y409500D02*
D03*
X297241D02*
D03*
X302259Y371500D02*
D03*
X296741D02*
D03*
X297500Y338500D02*
D03*
X303018D02*
D03*
X346500Y371500D02*
D03*
X340982D02*
D03*
X497241Y427500D02*
D03*
X502759D02*
D03*
X503259Y509500D02*
D03*
X497741D02*
D03*
X501759Y351500D02*
D03*
X496241D02*
D03*
X340482Y340500D02*
D03*
X346000D02*
D03*
X496482Y463000D02*
D03*
X502000D02*
D03*
X112241Y676500D02*
D03*
X117759D02*
D03*
X111000Y641000D02*
D03*
X116518D02*
D03*
X116018Y593500D02*
D03*
X110500D02*
D03*
X227518Y497000D02*
D03*
X222000D02*
D03*
D19*
X379500Y360000D02*
D03*
X385805D02*
D03*
X296847Y447500D02*
D03*
X303153D02*
D03*
X497000Y390000D02*
D03*
X503305D02*
D03*
X547695Y508000D02*
D03*
X554000D02*
D03*
X547695Y564500D02*
D03*
X554000D02*
D03*
X303805Y497000D02*
D03*
X297500D02*
D03*
X353000D02*
D03*
X359305D02*
D03*
X113000Y755500D02*
D03*
X119305D02*
D03*
X113195Y718500D02*
D03*
X119500D02*
D03*
D21*
X268673Y612242D02*
D03*
X270642D02*
D03*
X272610D02*
D03*
X274579D02*
D03*
X276547D02*
D03*
X278516D02*
D03*
X280484D02*
D03*
X282453D02*
D03*
X284421D02*
D03*
X286390D02*
D03*
X288358D02*
D03*
X290327D02*
D03*
Y579758D02*
D03*
X288358D02*
D03*
X286390D02*
D03*
X284421D02*
D03*
X282453D02*
D03*
X280484D02*
D03*
X278516D02*
D03*
X276547D02*
D03*
X274579D02*
D03*
X272610D02*
D03*
X270642D02*
D03*
X268673D02*
D03*
D22*
X295742Y606827D02*
D03*
Y604858D02*
D03*
Y602890D02*
D03*
Y600921D02*
D03*
Y598953D02*
D03*
Y596984D02*
D03*
Y595016D02*
D03*
Y593047D02*
D03*
Y591079D02*
D03*
Y589110D02*
D03*
Y587142D02*
D03*
Y585173D02*
D03*
X263258D02*
D03*
Y587142D02*
D03*
Y589110D02*
D03*
Y591079D02*
D03*
Y593047D02*
D03*
Y595016D02*
D03*
Y596984D02*
D03*
Y598953D02*
D03*
Y600921D02*
D03*
Y602890D02*
D03*
Y604858D02*
D03*
D23*
Y606827D02*
D03*
D25*
X377000Y718000D02*
D03*
Y711695D02*
D03*
X341000Y141153D02*
D03*
Y134847D02*
D03*
X398000Y80347D02*
D03*
Y86653D02*
D03*
X395500Y141805D02*
D03*
Y135500D02*
D03*
X341000Y88653D02*
D03*
Y82347D02*
D03*
D46*
X160657Y137559D02*
D03*
D47*
X180343D02*
D03*
X160657Y80472D02*
D03*
X170500D02*
D03*
X180343D02*
D03*
D48*
X148059Y110000D02*
D03*
X192941D02*
D03*
D58*
X547500Y679980D02*
D03*
Y672500D02*
D03*
X555374Y676240D02*
D03*
X391937Y933500D02*
D03*
X384063Y929760D02*
D03*
Y937240D02*
D03*
X464374Y1025260D02*
D03*
X456500Y1021520D02*
D03*
Y1029000D02*
D03*
X460437Y935500D02*
D03*
X452563Y931760D02*
D03*
Y939240D02*
D03*
D59*
X479626Y720000D02*
D03*
X492500D02*
D03*
X537063Y733000D02*
D03*
X549937D02*
D03*
D60*
X140811Y938000D02*
D03*
X117189D02*
D03*
X142122Y1021500D02*
D03*
X118500D02*
D03*
X273689Y98500D02*
D03*
X297311D02*
D03*
D61*
X307000Y837500D02*
D03*
X287000D02*
D03*
Y872000D02*
D03*
X307000D02*
D03*
D62*
X463500Y868000D02*
D03*
Y848000D02*
D03*
X429000D02*
D03*
Y868000D02*
D03*
D63*
X457768Y420661D02*
D03*
Y423220D02*
D03*
Y425780D02*
D03*
Y428339D02*
D03*
X441232Y420661D02*
D03*
Y423220D02*
D03*
Y425780D02*
D03*
Y428339D02*
D03*
D64*
X203339Y391768D02*
D03*
X200780D02*
D03*
X198220D02*
D03*
X195661D02*
D03*
X203339Y375232D02*
D03*
X200780D02*
D03*
X198220D02*
D03*
X195661D02*
D03*
D65*
X491000Y571689D02*
D03*
Y595311D02*
D03*
X434500Y519311D02*
D03*
Y495689D02*
D03*
D66*
X342000Y705563D02*
D03*
Y718437D02*
D03*
D67*
X302500Y951000D02*
D03*
D68*
X293524Y977772D02*
D03*
X311476D02*
D03*
D69*
X301386Y1043000D02*
D03*
Y1053000D02*
D03*
X259614D02*
D03*
Y1043000D02*
D03*
D70*
X258728Y224500D02*
D03*
Y219500D02*
D03*
Y214500D02*
D03*
Y209500D02*
D03*
Y204500D02*
D03*
Y199500D02*
D03*
Y194500D02*
D03*
Y189500D02*
D03*
Y184500D02*
D03*
Y179500D02*
D03*
X287272Y224500D02*
D03*
Y219500D02*
D03*
Y214500D02*
D03*
Y209500D02*
D03*
Y204500D02*
D03*
Y199500D02*
D03*
Y194500D02*
D03*
Y189500D02*
D03*
Y184500D02*
D03*
Y179500D02*
D03*
D71*
X231000Y973870D02*
D03*
Y934500D02*
D03*
D72*
X57500Y349000D02*
D03*
Y1106000D02*
D03*
X613500Y349000D02*
D03*
Y1106000D02*
D03*
X114000Y41500D02*
D03*
Y275500D02*
D03*
X538000D02*
D03*
Y41500D02*
D03*
D73*
X556500Y780921D02*
D03*
Y841000D02*
D03*
Y860842D02*
D03*
Y880685D02*
D03*
X526972D02*
D03*
Y860842D02*
D03*
Y841000D02*
D03*
Y780921D02*
D03*
D74*
X549000Y1124000D02*
D03*
X550500Y1005000D02*
D03*
X452000Y352500D02*
D03*
X168500Y1125500D02*
D03*
D75*
X549000Y1104000D02*
D03*
X550500Y985000D02*
D03*
D76*
X136000Y837921D02*
D03*
Y848157D02*
D03*
Y858000D02*
D03*
D77*
X432000Y352500D02*
D03*
X188500Y1125500D02*
D03*
D78*
X184000Y681500D02*
D03*
X376000Y656500D02*
D03*
X376500Y522000D02*
D03*
X185000Y577500D02*
D03*
X415000Y617500D02*
D03*
X376000Y588500D02*
D03*
D79*
X194000Y681500D02*
D03*
X184000Y671500D02*
D03*
X194000D02*
D03*
X184000Y661500D02*
D03*
X194000D02*
D03*
X184000Y651500D02*
D03*
X194000D02*
D03*
X184000Y641500D02*
D03*
X194000D02*
D03*
X366000Y676500D02*
D03*
X376000D02*
D03*
X366000Y666500D02*
D03*
X376000D02*
D03*
X366000Y656500D02*
D03*
X259000Y674500D02*
D03*
X269000D02*
D03*
X376500Y532000D02*
D03*
Y542000D02*
D03*
Y552000D02*
D03*
Y562000D02*
D03*
X185000Y597500D02*
D03*
Y587500D02*
D03*
X415000Y627500D02*
D03*
Y637500D02*
D03*
Y647500D02*
D03*
X279500Y534000D02*
D03*
X376000Y608500D02*
D03*
Y598500D02*
D03*
X500000Y200500D02*
D03*
X490000D02*
D03*
X480000D02*
D03*
X470000D02*
D03*
X460000D02*
D03*
X450000D02*
D03*
X440000D02*
D03*
X430000D02*
D03*
X420000D02*
D03*
X410000D02*
D03*
X400000D02*
D03*
X156500Y254500D02*
D03*
Y264500D02*
D03*
X166500Y254500D02*
D03*
Y264500D02*
D03*
X176500Y254500D02*
D03*
Y264500D02*
D03*
X186500Y254500D02*
D03*
Y264500D02*
D03*
X196500Y254500D02*
D03*
D80*
X279000Y674500D02*
D03*
X269500Y534000D02*
D03*
X390000Y200500D02*
D03*
X196500Y264500D02*
D03*
D81*
X284400Y481216D02*
D03*
X311000Y633500D02*
D03*
X219700Y695500D02*
D03*
X224500Y385500D02*
D03*
X387000Y653500D02*
D03*
X245808Y364808D02*
D03*
X177500Y351100D02*
D03*
X252000Y612000D02*
D03*
X529000Y703500D02*
D03*
X338500Y1031500D02*
D03*
X91000Y618000D02*
D03*
X275000Y748000D02*
D03*
X304000Y543000D02*
D03*
X556500Y616000D02*
D03*
X351500Y588000D02*
D03*
X329500Y347500D02*
D03*
X360000Y383500D02*
D03*
X311000Y334500D02*
D03*
X304500Y380500D02*
D03*
X308500Y392000D02*
D03*
X297500Y394500D02*
D03*
X203311Y383189D02*
D03*
X126400Y641000D02*
D03*
X297400Y343800D02*
D03*
X198220Y383500D02*
D03*
X236000Y533000D02*
D03*
Y577500D02*
D03*
X156000D02*
D03*
X301000Y651500D02*
D03*
X194500Y618000D02*
D03*
X309000Y521500D02*
D03*
X327500Y581000D02*
D03*
X287000Y510000D02*
D03*
X309500Y671000D02*
D03*
X328000Y697000D02*
D03*
X295500Y645500D02*
D03*
X441500Y442500D02*
D03*
X466000Y484000D02*
D03*
X450000Y458000D02*
D03*
X475000Y463000D02*
D03*
X212808Y530308D02*
D03*
X227000Y610000D02*
D03*
X136500Y593500D02*
D03*
X201500D02*
D03*
X285000Y550000D02*
D03*
X480000Y505500D02*
D03*
X270100Y91800D02*
D03*
X265200Y213000D02*
D03*
X249900Y218000D02*
D03*
X265200Y175000D02*
D03*
X245900Y222800D02*
D03*
X265500Y205000D02*
D03*
Y192500D02*
D03*
X484000Y184500D02*
D03*
X497500Y104600D02*
D03*
X393000D02*
D03*
X352000Y121300D02*
D03*
X303400Y238100D02*
D03*
X294000Y229200D02*
D03*
X451200Y78500D02*
D03*
X273500Y189500D02*
D03*
X469000D02*
D03*
D82*
X535500Y582000D02*
D03*
X461000Y722000D02*
D03*
X406500Y725500D02*
D03*
X402000Y787000D02*
D03*
X371000Y867500D02*
D03*
X420000Y909000D02*
D03*
X456500Y1044021D02*
D03*
X473500Y953000D02*
D03*
X404500Y946063D02*
D03*
X514500Y1026000D02*
D03*
X464374Y988874D02*
D03*
X237500Y834000D02*
D03*
Y888000D02*
D03*
X355500Y978000D02*
D03*
X363500Y1081500D02*
D03*
X481500Y900500D02*
D03*
X373000Y815000D02*
D03*
M02*
