G04*
G04 #@! TF.GenerationSoftware,Altium Limited,Altium Designer,23.4.1 (23)*
G04*
G04 Layer_Color=16711935*
%FSLAX25Y25*%
%MOIN*%
G70*
G04*
G04 #@! TF.SameCoordinates,4704FA20-ACEE-4373-A647-A7C3691A48C7*
G04*
G04*
G04 #@! TF.FilePolarity,Negative*
G04*
G01*
G75*
%ADD46R,0.06102X0.06102*%
%ADD47C,0.06102*%
G04:AMPARAMS|DCode=48|XSize=94.49mil|YSize=196.85mil|CornerRadius=47.24mil|HoleSize=0mil|Usage=FLASHONLY|Rotation=0.000|XOffset=0mil|YOffset=0mil|HoleType=Round|Shape=RoundedRectangle|*
%AMROUNDEDRECTD48*
21,1,0.09449,0.10236,0,0,0.0*
21,1,0.00000,0.19685,0,0,0.0*
1,1,0.09449,0.00000,-0.05118*
1,1,0.09449,0.00000,-0.05118*
1,1,0.09449,0.00000,0.05118*
1,1,0.09449,0.00000,0.05118*
%
%ADD48ROUNDEDRECTD48*%
%ADD71C,0.05524*%
%ADD72C,0.20800*%
%ADD73C,0.09068*%
%ADD74C,0.07296*%
%ADD75R,0.07296X0.07296*%
%ADD76C,0.06780*%
%ADD77R,0.07296X0.07296*%
%ADD78R,0.06706X0.06706*%
%ADD79C,0.06706*%
%ADD80R,0.06706X0.06706*%
%ADD81C,0.05800*%
%ADD82C,0.06800*%
D46*
X160657Y137559D02*
D03*
D47*
X180343D02*
D03*
X160657Y80472D02*
D03*
X170500D02*
D03*
X180343D02*
D03*
D48*
X148059Y110000D02*
D03*
X192941D02*
D03*
D71*
X231000Y973870D02*
D03*
Y934500D02*
D03*
D72*
X57500Y349000D02*
D03*
Y1106000D02*
D03*
X613500Y349000D02*
D03*
Y1106000D02*
D03*
X114000Y41500D02*
D03*
Y275500D02*
D03*
X538000D02*
D03*
Y41500D02*
D03*
D73*
X556500Y780921D02*
D03*
Y841000D02*
D03*
Y860842D02*
D03*
Y880685D02*
D03*
X526972D02*
D03*
Y860842D02*
D03*
Y841000D02*
D03*
Y780921D02*
D03*
D74*
X549000Y1124000D02*
D03*
X550500Y1005000D02*
D03*
X452000Y352500D02*
D03*
X168500Y1125500D02*
D03*
D75*
X549000Y1104000D02*
D03*
X550500Y985000D02*
D03*
D76*
X136000Y837921D02*
D03*
Y848157D02*
D03*
Y858000D02*
D03*
D77*
X432000Y352500D02*
D03*
X188500Y1125500D02*
D03*
D78*
X184000Y681500D02*
D03*
X376000Y656500D02*
D03*
X376500Y522000D02*
D03*
X185000Y577500D02*
D03*
X415000Y617500D02*
D03*
X376000Y588500D02*
D03*
D79*
X194000Y681500D02*
D03*
X184000Y671500D02*
D03*
X194000D02*
D03*
X184000Y661500D02*
D03*
X194000D02*
D03*
X184000Y651500D02*
D03*
X194000D02*
D03*
X184000Y641500D02*
D03*
X194000D02*
D03*
X366000Y676500D02*
D03*
X376000D02*
D03*
X366000Y666500D02*
D03*
X376000D02*
D03*
X366000Y656500D02*
D03*
X259000Y674500D02*
D03*
X269000D02*
D03*
X376500Y532000D02*
D03*
Y542000D02*
D03*
Y552000D02*
D03*
Y562000D02*
D03*
X185000Y597500D02*
D03*
Y587500D02*
D03*
X415000Y627500D02*
D03*
Y637500D02*
D03*
Y647500D02*
D03*
X279500Y534000D02*
D03*
X376000Y608500D02*
D03*
Y598500D02*
D03*
X500000Y200500D02*
D03*
X490000D02*
D03*
X480000D02*
D03*
X470000D02*
D03*
X460000D02*
D03*
X450000D02*
D03*
X440000D02*
D03*
X430000D02*
D03*
X420000D02*
D03*
X410000D02*
D03*
X400000D02*
D03*
X156500Y254500D02*
D03*
Y264500D02*
D03*
X166500Y254500D02*
D03*
Y264500D02*
D03*
X176500Y254500D02*
D03*
Y264500D02*
D03*
X186500Y254500D02*
D03*
Y264500D02*
D03*
X196500Y254500D02*
D03*
D80*
X279000Y674500D02*
D03*
X269500Y534000D02*
D03*
X390000Y200500D02*
D03*
X196500Y264500D02*
D03*
D81*
X284400Y481216D02*
D03*
X311000Y633500D02*
D03*
X219700Y695500D02*
D03*
X224500Y385500D02*
D03*
X387000Y653500D02*
D03*
X245808Y364808D02*
D03*
X177500Y351100D02*
D03*
X252000Y612000D02*
D03*
X529000Y703500D02*
D03*
X338500Y1031500D02*
D03*
X91000Y618000D02*
D03*
X275000Y748000D02*
D03*
X304000Y543000D02*
D03*
X556500Y616000D02*
D03*
X351500Y588000D02*
D03*
X329500Y347500D02*
D03*
X360000Y383500D02*
D03*
X311000Y334500D02*
D03*
X304500Y380500D02*
D03*
X308500Y392000D02*
D03*
X297500Y394500D02*
D03*
X203311Y383189D02*
D03*
X126400Y641000D02*
D03*
X297400Y343800D02*
D03*
X198220Y383500D02*
D03*
X236000Y533000D02*
D03*
Y577500D02*
D03*
X156000D02*
D03*
X301000Y651500D02*
D03*
X194500Y618000D02*
D03*
X309000Y521500D02*
D03*
X327500Y581000D02*
D03*
X287000Y510000D02*
D03*
X309500Y671000D02*
D03*
X328000Y697000D02*
D03*
X295500Y645500D02*
D03*
X441500Y442500D02*
D03*
X466000Y484000D02*
D03*
X450000Y458000D02*
D03*
X475000Y463000D02*
D03*
X212808Y530308D02*
D03*
X227000Y610000D02*
D03*
X136500Y593500D02*
D03*
X201500D02*
D03*
X285000Y550000D02*
D03*
X480000Y505500D02*
D03*
X270100Y91800D02*
D03*
X265200Y213000D02*
D03*
X249900Y218000D02*
D03*
X265200Y175000D02*
D03*
X245900Y222800D02*
D03*
X265500Y205000D02*
D03*
Y192500D02*
D03*
X484000Y184500D02*
D03*
X497500Y104600D02*
D03*
X393000D02*
D03*
X352000Y121300D02*
D03*
X303400Y238100D02*
D03*
X294000Y229200D02*
D03*
X451200Y78500D02*
D03*
X273500Y189500D02*
D03*
X469000D02*
D03*
D82*
X535500Y582000D02*
D03*
X461000Y722000D02*
D03*
X406500Y725500D02*
D03*
X402000Y787000D02*
D03*
X371000Y867500D02*
D03*
X420000Y909000D02*
D03*
X456500Y1044021D02*
D03*
X473500Y953000D02*
D03*
X404500Y946063D02*
D03*
X514500Y1026000D02*
D03*
X464374Y988874D02*
D03*
X237500Y834000D02*
D03*
Y888000D02*
D03*
X355500Y978000D02*
D03*
X363500Y1081500D02*
D03*
X481500Y900500D02*
D03*
X373000Y815000D02*
D03*
M02*
