G04*
G04 #@! TF.GenerationSoftware,Altium Limited,Altium Designer,23.4.1 (23)*
G04*
G04 Layer_Color=65535*
%FSLAX25Y25*%
%MOIN*%
G70*
G04*
G04 #@! TF.SameCoordinates,4704FA20-ACEE-4373-A647-A7C3691A48C7*
G04*
G04*
G04 #@! TF.FilePolarity,Positive*
G04*
G01*
G75*
%ADD29C,0.01000*%
%ADD49C,0.00787*%
%ADD50C,0.00984*%
%ADD51C,0.01575*%
%ADD52C,0.01181*%
%ADD53C,0.01968*%
%ADD54C,0.00500*%
%ADD55C,0.00394*%
%ADD56C,0.00800*%
%ADD57C,0.02362*%
D29*
X137768Y954732D02*
X145732Y946768D01*
Y938000D02*
Y946768D01*
Y929268D02*
Y938000D01*
X137732Y921268D02*
X145732Y929268D01*
X112268Y921268D02*
X137732D01*
X112268D02*
Y954697D01*
X112232Y954732D02*
X137768D01*
X139079Y1038232D02*
X147043Y1030268D01*
Y1021500D02*
Y1030268D01*
Y1012768D02*
Y1021500D01*
X139043Y1004768D02*
X147043Y1012768D01*
X113579Y1004768D02*
X139043D01*
X113579D02*
Y1038197D01*
X113543Y1038232D02*
X139079D01*
X288803Y837571D02*
X297000D01*
X277993D02*
X284221D01*
X277993D02*
Y856577D01*
X284221Y837571D02*
X288803D01*
X297000D02*
X298969D01*
X277993Y871493D02*
X278327Y871827D01*
X290504D01*
X316007Y856577D02*
Y871827D01*
X303496D02*
X316007D01*
X277993Y856577D02*
Y871493D01*
X316007Y854500D02*
Y856577D01*
Y837571D02*
Y854500D01*
X290504Y871827D02*
X303496D01*
X298969Y837571D02*
X316007D01*
X463429Y849803D02*
Y858000D01*
Y838993D02*
Y845221D01*
X444423Y838993D02*
X463429D01*
Y845221D02*
Y849803D01*
Y858000D02*
Y859969D01*
X429173Y839327D02*
X429507Y838993D01*
X429173Y839327D02*
Y851504D01*
Y877007D02*
X444423D01*
X429173Y864496D02*
Y877007D01*
X429507Y838993D02*
X444423D01*
Y877007D02*
X446500D01*
X463429D01*
X429173Y851504D02*
Y864496D01*
X463429Y859969D02*
Y877007D01*
X499768Y566768D02*
X507732Y574732D01*
X491000Y566768D02*
X499768D01*
X482268D02*
X491000D01*
X474268Y574768D02*
X482268Y566768D01*
X474268Y574768D02*
Y600232D01*
X507697D01*
X507732Y574732D02*
Y600268D01*
X417768Y516268D02*
X425732Y524232D01*
X434500D01*
X443232D01*
X451232Y516232D01*
Y490768D02*
Y516232D01*
X417803Y490768D02*
X451232D01*
X417768Y490732D02*
Y516268D01*
X285000Y842000D02*
X286000Y843000D01*
X287999D01*
X288999Y843999D01*
X305000Y842000D02*
X306000Y843000D01*
X307999D01*
X308999Y843999D01*
X285000Y865500D02*
X288999D01*
X305000Y865999D02*
X308999D01*
X306999Y867999D02*
Y864000D01*
X459000Y846000D02*
X458000Y847000D01*
Y848999D01*
X457001Y849999D01*
X459000Y866000D02*
X458000Y867000D01*
Y868999D01*
X457001Y869999D01*
X435500Y846000D02*
Y849999D01*
X435001Y866000D02*
Y869999D01*
X433001Y867999D02*
X437000D01*
X259600Y625898D02*
Y620900D01*
X260600Y619900D01*
X262599D01*
X263599Y620900D01*
Y625898D01*
X265598Y619900D02*
X267597D01*
X266598D01*
Y625898D01*
X265598Y624898D01*
X451300Y952998D02*
X455299D01*
X453299D01*
Y947000D01*
X461297Y952998D02*
X457298D01*
Y949999D01*
X459297Y950999D01*
X460297D01*
X461297Y949999D01*
Y948000D01*
X460297Y947000D01*
X458298D01*
X457298Y948000D01*
X455200Y1042698D02*
X459199D01*
X457199D01*
Y1036700D01*
X464197D02*
Y1042698D01*
X461198Y1039699D01*
X465197D01*
X288300Y994398D02*
X292299D01*
X290299D01*
Y988400D01*
X294298Y993398D02*
X295298Y994398D01*
X297297D01*
X298297Y993398D01*
Y992399D01*
X297297Y991399D01*
X296297D01*
X297297D01*
X298297Y990399D01*
Y989400D01*
X297297Y988400D01*
X295298D01*
X294298Y989400D01*
X382800Y950998D02*
X386799D01*
X384799D01*
Y945000D01*
X392797D02*
X388798D01*
X392797Y948999D01*
Y949998D01*
X391797Y950998D01*
X389798D01*
X388798Y949998D01*
X546200Y693698D02*
X550199D01*
X548199D01*
Y687700D01*
X552198D02*
X554197D01*
X553198D01*
Y693698D01*
X552198Y692698D01*
X517300Y889400D02*
Y895398D01*
X520299D01*
X521299Y894398D01*
Y892399D01*
X520299Y891399D01*
X517300D01*
X519299D02*
X521299Y889400D01*
X527297Y895398D02*
X523298D01*
Y889400D01*
X527297D01*
X523298Y892399D02*
X525297D01*
X529296Y889400D02*
X531295D01*
X530296D01*
Y895398D01*
X529296Y894398D01*
X110300Y684300D02*
Y690298D01*
X113299D01*
X114299Y689298D01*
Y687299D01*
X113299Y686299D01*
X110300D01*
X112299D02*
X114299Y684300D01*
X120297D02*
X116298D01*
X120297Y688299D01*
Y689298D01*
X119297Y690298D01*
X117298D01*
X116298Y689298D01*
X126295Y684300D02*
X122296D01*
X126295Y688299D01*
Y689298D01*
X125295Y690298D01*
X123296D01*
X122296Y689298D01*
X109000Y648800D02*
Y654798D01*
X111999D01*
X112999Y653798D01*
Y651799D01*
X111999Y650799D01*
X109000D01*
X110999D02*
X112999Y648800D01*
X118997D02*
X114998D01*
X118997Y652799D01*
Y653798D01*
X117997Y654798D01*
X115998D01*
X114998Y653798D01*
X120996Y648800D02*
X122995D01*
X121996D01*
Y654798D01*
X120996Y653798D01*
X384700Y1056200D02*
Y1062198D01*
X387699D01*
X388699Y1061198D01*
Y1059199D01*
X387699Y1058199D01*
X384700D01*
X386699D02*
X388699Y1056200D01*
X394697D02*
X390698D01*
X394697Y1060199D01*
Y1061198D01*
X393697Y1062198D01*
X391698D01*
X390698Y1061198D01*
X396696D02*
X397696Y1062198D01*
X399695D01*
X400695Y1061198D01*
Y1057200D01*
X399695Y1056200D01*
X397696D01*
X396696Y1057200D01*
Y1061198D01*
X108500Y601300D02*
Y607298D01*
X111499D01*
X112499Y606298D01*
Y604299D01*
X111499Y603299D01*
X108500D01*
X110499D02*
X112499Y601300D01*
X114498D02*
X116497D01*
X115498D01*
Y607298D01*
X114498Y606298D01*
X119496Y602300D02*
X120496Y601300D01*
X122495D01*
X123495Y602300D01*
Y606298D01*
X122495Y607298D01*
X120496D01*
X119496Y606298D01*
Y605299D01*
X120496Y604299D01*
X123495D01*
X384700Y1008500D02*
Y1014498D01*
X387699D01*
X388699Y1013498D01*
Y1011499D01*
X387699Y1010499D01*
X384700D01*
X386699D02*
X388699Y1008500D01*
X390698D02*
X392697D01*
X391698D01*
Y1014498D01*
X390698Y1013498D01*
X395696D02*
X396696Y1014498D01*
X398695D01*
X399695Y1013498D01*
Y1012499D01*
X398695Y1011499D01*
X399695Y1010499D01*
Y1009500D01*
X398695Y1008500D01*
X396696D01*
X395696Y1009500D01*
Y1010499D01*
X396696Y1011499D01*
X395696Y1012499D01*
Y1013498D01*
X396696Y1011499D02*
X398695D01*
X384700Y1115000D02*
Y1120998D01*
X387699D01*
X388699Y1119998D01*
Y1117999D01*
X387699Y1116999D01*
X384700D01*
X386699D02*
X388699Y1115000D01*
X390698D02*
X392697D01*
X391698D01*
Y1120998D01*
X390698Y1119998D01*
X395696Y1120998D02*
X399695D01*
Y1119998D01*
X395696Y1116000D01*
Y1115000D01*
X220000Y504800D02*
Y510798D01*
X222999D01*
X223999Y509798D01*
Y507799D01*
X222999Y506799D01*
X220000D01*
X221999D02*
X223999Y504800D01*
X225998D02*
X227997D01*
X226998D01*
Y510798D01*
X225998Y509798D01*
X234995Y510798D02*
X232996Y509798D01*
X230996Y507799D01*
Y505800D01*
X231996Y504800D01*
X233996D01*
X234995Y505800D01*
Y506799D01*
X233996Y507799D01*
X230996D01*
X339000Y454800D02*
Y460798D01*
X341999D01*
X342999Y459798D01*
Y457799D01*
X341999Y456799D01*
X339000D01*
X340999D02*
X342999Y454800D01*
X344998D02*
X346997D01*
X345998D01*
Y460798D01*
X344998Y459798D01*
X353995Y460798D02*
X349996D01*
Y457799D01*
X351996Y458799D01*
X352995D01*
X353995Y457799D01*
Y455800D01*
X352995Y454800D01*
X350996D01*
X349996Y455800D01*
X295300Y417300D02*
Y423298D01*
X298299D01*
X299299Y422298D01*
Y420299D01*
X298299Y419299D01*
X295300D01*
X297299D02*
X299299Y417300D01*
X301298D02*
X303297D01*
X302298D01*
Y423298D01*
X301298Y422298D01*
X309296Y417300D02*
Y423298D01*
X306296Y420299D01*
X310295D01*
X338500Y425800D02*
Y431798D01*
X341499D01*
X342499Y430798D01*
Y428799D01*
X341499Y427799D01*
X338500D01*
X340499D02*
X342499Y425800D01*
X344498D02*
X346497D01*
X345498D01*
Y431798D01*
X344498Y430798D01*
X349496D02*
X350496Y431798D01*
X352496D01*
X353495Y430798D01*
Y429799D01*
X352496Y428799D01*
X351496D01*
X352496D01*
X353495Y427799D01*
Y426800D01*
X352496Y425800D01*
X350496D01*
X349496Y426800D01*
X294800Y379300D02*
Y385298D01*
X297799D01*
X298799Y384298D01*
Y382299D01*
X297799Y381299D01*
X294800D01*
X296799D02*
X298799Y379300D01*
X300798D02*
X302797D01*
X301798D01*
Y385298D01*
X300798Y384298D01*
X309795Y379300D02*
X305796D01*
X309795Y383299D01*
Y384298D01*
X308795Y385298D01*
X306796D01*
X305796Y384298D01*
X295500Y346300D02*
Y352298D01*
X298499D01*
X299499Y351298D01*
Y349299D01*
X298499Y348299D01*
X295500D01*
X297499D02*
X299499Y346300D01*
X301498D02*
X303497D01*
X302498D01*
Y352298D01*
X301498Y351298D01*
X306496Y346300D02*
X308496D01*
X307496D01*
Y352298D01*
X306496Y351298D01*
X486700Y684000D02*
Y689998D01*
X489699D01*
X490699Y688998D01*
Y686999D01*
X489699Y685999D01*
X486700D01*
X488699D02*
X490699Y684000D01*
X492698D02*
X494697D01*
X493698D01*
Y689998D01*
X492698Y688998D01*
X497696D02*
X498696Y689998D01*
X500696D01*
X501695Y688998D01*
Y685000D01*
X500696Y684000D01*
X498696D01*
X497696Y685000D01*
Y688998D01*
X339000Y379300D02*
Y385298D01*
X341999D01*
X342999Y384298D01*
Y382299D01*
X341999Y381299D01*
X339000D01*
X340999D02*
X342999Y379300D01*
X344998Y380300D02*
X345998Y379300D01*
X347997D01*
X348997Y380300D01*
Y384298D01*
X347997Y385298D01*
X345998D01*
X344998Y384298D01*
Y383299D01*
X345998Y382299D01*
X348997D01*
X495300Y435300D02*
Y441298D01*
X498299D01*
X499299Y440298D01*
Y438299D01*
X498299Y437299D01*
X495300D01*
X497299D02*
X499299Y435300D01*
X501298Y440298D02*
X502298Y441298D01*
X504297D01*
X505297Y440298D01*
Y439299D01*
X504297Y438299D01*
X505297Y437299D01*
Y436300D01*
X504297Y435300D01*
X502298D01*
X501298Y436300D01*
Y437299D01*
X502298Y438299D01*
X501298Y439299D01*
Y440298D01*
X502298Y438299D02*
X504297D01*
X547000Y644800D02*
Y650798D01*
X549999D01*
X550999Y649798D01*
Y647799D01*
X549999Y646799D01*
X547000D01*
X548999D02*
X550999Y644800D01*
X552998Y650798D02*
X556997D01*
Y649798D01*
X552998Y645800D01*
Y644800D01*
X254800Y787800D02*
Y793798D01*
X257799D01*
X258799Y792798D01*
Y790799D01*
X257799Y789799D01*
X254800D01*
X256799D02*
X258799Y787800D01*
X264797Y793798D02*
X262797Y792798D01*
X260798Y790799D01*
Y788800D01*
X261798Y787800D01*
X263797D01*
X264797Y788800D01*
Y789799D01*
X263797Y790799D01*
X260798D01*
X495800Y517300D02*
Y523298D01*
X498799D01*
X499799Y522298D01*
Y520299D01*
X498799Y519299D01*
X495800D01*
X497799D02*
X499799Y517300D01*
X505797Y523298D02*
X501798D01*
Y520299D01*
X503797Y521299D01*
X504797D01*
X505797Y520299D01*
Y518300D01*
X504797Y517300D01*
X502798D01*
X501798Y518300D01*
X494300Y359300D02*
Y365298D01*
X497299D01*
X498299Y364298D01*
Y362299D01*
X497299Y361299D01*
X494300D01*
X496299D02*
X498299Y359300D01*
X503297D02*
Y365298D01*
X500298Y362299D01*
X504297D01*
X332500Y788800D02*
Y794798D01*
X335499D01*
X336499Y793798D01*
Y791799D01*
X335499Y790799D01*
X332500D01*
X334499D02*
X336499Y788800D01*
X338498Y793798D02*
X339498Y794798D01*
X341497D01*
X342497Y793798D01*
Y792799D01*
X341497Y791799D01*
X340497D01*
X341497D01*
X342497Y790799D01*
Y789800D01*
X341497Y788800D01*
X339498D01*
X338498Y789800D01*
X338500Y348300D02*
Y354298D01*
X341499D01*
X342499Y353298D01*
Y351299D01*
X341499Y350299D01*
X338500D01*
X340499D02*
X342499Y348300D01*
X348497D02*
X344498D01*
X348497Y352299D01*
Y353298D01*
X347497Y354298D01*
X345498D01*
X344498Y353298D01*
X494500Y470800D02*
Y476798D01*
X497499D01*
X498499Y475798D01*
Y473799D01*
X497499Y472799D01*
X494500D01*
X496499D02*
X498499Y470800D01*
X500498D02*
X502497D01*
X501498D01*
Y476798D01*
X500498Y475798D01*
X248100Y1073498D02*
Y1067500D01*
X252099D01*
X258097D02*
X254098D01*
X258097Y1071499D01*
Y1072498D01*
X257097Y1073498D01*
X255098D01*
X254098Y1072498D01*
X294600Y510798D02*
Y504800D01*
X298599D01*
X300598D02*
X302597D01*
X301598D01*
Y510798D01*
X300598Y509798D01*
X420600Y378698D02*
Y372700D01*
Y374699D01*
X424599Y378698D01*
X421600Y375699D01*
X424599Y372700D01*
X426598D02*
X428597D01*
X427598D01*
Y378698D01*
X426598Y377698D01*
X431596D02*
X432596Y378698D01*
X434595D01*
X435595Y377698D01*
Y376699D01*
X434595Y375699D01*
X433596D01*
X434595D01*
X435595Y374699D01*
Y373700D01*
X434595Y372700D01*
X432596D01*
X431596Y373700D01*
X179600Y701298D02*
Y695300D01*
Y697299D01*
X183599Y701298D01*
X180600Y698299D01*
X183599Y695300D01*
X185598D02*
X187597D01*
X186598D01*
Y701298D01*
X185598Y700298D01*
X194595Y695300D02*
X190596D01*
X194595Y699299D01*
Y700298D01*
X193596Y701298D01*
X191596D01*
X190596Y700298D01*
X361600Y695598D02*
Y689600D01*
Y691599D01*
X365599Y695598D01*
X362600Y692599D01*
X365599Y689600D01*
X367598D02*
X369597D01*
X368598D01*
Y695598D01*
X367598Y694598D01*
X372596Y689600D02*
X374596D01*
X373596D01*
Y695598D01*
X372596Y694598D01*
X254600Y688898D02*
Y682900D01*
Y684899D01*
X258599Y688898D01*
X255600Y685899D01*
X258599Y682900D01*
X260598D02*
X262597D01*
X261598D01*
Y688898D01*
X260598Y687898D01*
X265596D02*
X266596Y688898D01*
X268596D01*
X269595Y687898D01*
Y683900D01*
X268596Y682900D01*
X266596D01*
X265596Y683900D01*
Y687898D01*
X372100Y576398D02*
Y570400D01*
Y572399D01*
X376099Y576398D01*
X373100Y573399D01*
X376099Y570400D01*
X378098Y571400D02*
X379098Y570400D01*
X381097D01*
X382097Y571400D01*
Y575398D01*
X381097Y576398D01*
X379098D01*
X378098Y575398D01*
Y574399D01*
X379098Y573399D01*
X382097D01*
X158400Y1151698D02*
Y1145700D01*
Y1147699D01*
X162399Y1151698D01*
X159400Y1148699D01*
X162399Y1145700D01*
X164398Y1150698D02*
X165398Y1151698D01*
X167397D01*
X168397Y1150698D01*
Y1149699D01*
X167397Y1148699D01*
X168397Y1147699D01*
Y1146700D01*
X167397Y1145700D01*
X165398D01*
X164398Y1146700D01*
Y1147699D01*
X165398Y1148699D01*
X164398Y1149699D01*
Y1150698D01*
X165398Y1148699D02*
X167397D01*
X180600Y611898D02*
Y605900D01*
Y607899D01*
X184599Y611898D01*
X181600Y608899D01*
X184599Y605900D01*
X186598Y611898D02*
X190597D01*
Y610898D01*
X186598Y606900D01*
Y605900D01*
X410600Y661898D02*
Y655900D01*
Y657899D01*
X414599Y661898D01*
X411600Y658899D01*
X414599Y655900D01*
X420597Y661898D02*
X418597Y660898D01*
X416598Y658899D01*
Y656900D01*
X417598Y655900D01*
X419597D01*
X420597Y656900D01*
Y657899D01*
X419597Y658899D01*
X416598D01*
X265100Y548398D02*
Y542400D01*
Y544399D01*
X269099Y548398D01*
X266100Y545399D01*
X269099Y542400D01*
X275097Y548398D02*
X271098D01*
Y545399D01*
X273097Y546399D01*
X274097D01*
X275097Y545399D01*
Y543400D01*
X274097Y542400D01*
X272098D01*
X271098Y543400D01*
X371600Y622898D02*
Y616900D01*
Y618899D01*
X375599Y622898D01*
X372600Y619899D01*
X375599Y616900D01*
X380597D02*
Y622898D01*
X377598Y619899D01*
X381597D01*
X532800Y1144098D02*
Y1138100D01*
Y1140099D01*
X536799Y1144098D01*
X533800Y1141099D01*
X536799Y1138100D01*
X542797D02*
X538798D01*
X542797Y1142099D01*
Y1143098D01*
X541797Y1144098D01*
X539798D01*
X538798Y1143098D01*
X534300Y1025098D02*
Y1019100D01*
Y1021099D01*
X538299Y1025098D01*
X535300Y1022099D01*
X538299Y1019100D01*
X540298D02*
X542297D01*
X541298D01*
Y1025098D01*
X540298Y1024098D01*
X437800Y441398D02*
X439799D01*
X438800D01*
Y435400D01*
X437800D01*
X439799D01*
X446797Y440398D02*
X445797Y441398D01*
X443798D01*
X442798Y440398D01*
Y436400D01*
X443798Y435400D01*
X445797D01*
X446797Y436400D01*
X452795Y435400D02*
X448796D01*
X452795Y439399D01*
Y440398D01*
X451795Y441398D01*
X449796D01*
X448796Y440398D01*
X454795Y441398D02*
Y435400D01*
X457794D01*
X458793Y436400D01*
Y437399D01*
X457794Y438399D01*
X454795D01*
X457794D01*
X458793Y439399D01*
Y440398D01*
X457794Y441398D01*
X454795D01*
X192600Y405198D02*
X194599D01*
X193600D01*
Y399200D01*
X192600D01*
X194599D01*
X201597Y404198D02*
X200597Y405198D01*
X198598D01*
X197598Y404198D01*
Y400200D01*
X198598Y399200D01*
X200597D01*
X201597Y400200D01*
X207595Y399200D02*
X203596D01*
X207595Y403199D01*
Y404198D01*
X206595Y405198D01*
X204596D01*
X203596Y404198D01*
X209594Y399200D02*
Y403199D01*
X211594Y405198D01*
X213593Y403199D01*
Y399200D01*
Y402199D01*
X209594D01*
X110800Y882698D02*
X112799D01*
X111800D01*
Y876700D01*
X110800D01*
X112799D01*
X119797Y881698D02*
X118797Y882698D01*
X116798D01*
X115798Y881698D01*
Y877700D01*
X116798Y876700D01*
X118797D01*
X119797Y877700D01*
X121796Y876700D02*
X123796D01*
X122796D01*
Y882698D01*
X121796Y881698D01*
X337400Y729698D02*
Y723700D01*
X340399D01*
X341399Y724700D01*
Y728698D01*
X340399Y729698D01*
X337400D01*
X343398Y728698D02*
X344398Y729698D01*
X346397D01*
X347397Y728698D01*
Y727699D01*
X346397Y726699D01*
X345397D01*
X346397D01*
X347397Y725699D01*
Y724700D01*
X346397Y723700D01*
X344398D01*
X343398Y724700D01*
X478300Y734598D02*
Y728600D01*
X481299D01*
X482299Y729600D01*
Y733598D01*
X481299Y734598D01*
X478300D01*
X488297Y728600D02*
X484298D01*
X488297Y732599D01*
Y733598D01*
X487297Y734598D01*
X485298D01*
X484298Y733598D01*
X535800Y747598D02*
Y741600D01*
X538799D01*
X539799Y742600D01*
Y746598D01*
X538799Y747598D01*
X535800D01*
X541798Y741600D02*
X543797D01*
X542798D01*
Y747598D01*
X541798Y746598D01*
X377199Y729898D02*
X376199Y730898D01*
X374200D01*
X373200Y729898D01*
Y725900D01*
X374200Y724900D01*
X376199D01*
X377199Y725900D01*
X379198Y724900D02*
X381197D01*
X380198D01*
Y730898D01*
X379198Y729898D01*
X387195Y724900D02*
Y730898D01*
X384196Y727899D01*
X388195D01*
X380599Y372798D02*
X379599Y373798D01*
X377600D01*
X376600Y372798D01*
Y368800D01*
X377600Y367800D01*
X379599D01*
X380599Y368800D01*
X382598Y367800D02*
X384597D01*
X383598D01*
Y373798D01*
X382598Y372798D01*
X387596D02*
X388596Y373798D01*
X390596D01*
X391595Y372798D01*
Y371799D01*
X390596Y370799D01*
X389596D01*
X390596D01*
X391595Y369799D01*
Y368800D01*
X390596Y367800D01*
X388596D01*
X387596Y368800D01*
X297899Y460298D02*
X296899Y461298D01*
X294900D01*
X293900Y460298D01*
Y456300D01*
X294900Y455300D01*
X296899D01*
X297899Y456300D01*
X299898Y455300D02*
X301897D01*
X300898D01*
Y461298D01*
X299898Y460298D01*
X308895Y455300D02*
X304896D01*
X308895Y459299D01*
Y460298D01*
X307895Y461298D01*
X305896D01*
X304896Y460298D01*
X354099Y509798D02*
X353099Y510798D01*
X351100D01*
X350100Y509798D01*
Y505800D01*
X351100Y504800D01*
X353099D01*
X354099Y505800D01*
X356098Y504800D02*
X358097D01*
X357098D01*
Y510798D01*
X356098Y509798D01*
X361096Y504800D02*
X363096D01*
X362096D01*
Y510798D01*
X361096Y509798D01*
X422299Y533398D02*
X421299Y534398D01*
X419300D01*
X418300Y533398D01*
Y529400D01*
X419300Y528400D01*
X421299D01*
X422299Y529400D01*
X424298Y528400D02*
X426297D01*
X425298D01*
Y534398D01*
X424298Y533398D01*
X429296D02*
X430296Y534398D01*
X432296D01*
X433295Y533398D01*
Y529400D01*
X432296Y528400D01*
X430296D01*
X429296Y529400D01*
Y533398D01*
X114099Y768298D02*
X113099Y769298D01*
X111100D01*
X110100Y768298D01*
Y764300D01*
X111100Y763300D01*
X113099D01*
X114099Y764300D01*
X116098D02*
X117098Y763300D01*
X119097D01*
X120097Y764300D01*
Y768298D01*
X119097Y769298D01*
X117098D01*
X116098Y768298D01*
Y767299D01*
X117098Y766299D01*
X120097D01*
X114199Y731298D02*
X113199Y732298D01*
X111200D01*
X110200Y731298D01*
Y727300D01*
X111200Y726300D01*
X113199D01*
X114199Y727300D01*
X116198Y731298D02*
X117198Y732298D01*
X119197D01*
X120197Y731298D01*
Y730299D01*
X119197Y729299D01*
X120197Y728299D01*
Y727300D01*
X119197Y726300D01*
X117198D01*
X116198Y727300D01*
Y728299D01*
X117198Y729299D01*
X116198Y730299D01*
Y731298D01*
X117198Y729299D02*
X119197D01*
X498099Y402798D02*
X497099Y403798D01*
X495100D01*
X494100Y402798D01*
Y398800D01*
X495100Y397800D01*
X497099D01*
X498099Y398800D01*
X500098Y403798D02*
X504097D01*
Y402798D01*
X500098Y398800D01*
Y397800D01*
X548699Y520798D02*
X547699Y521798D01*
X545700D01*
X544700Y520798D01*
Y516800D01*
X545700Y515800D01*
X547699D01*
X548699Y516800D01*
X554697Y521798D02*
X552697Y520798D01*
X550698Y518799D01*
Y516800D01*
X551698Y515800D01*
X553697D01*
X554697Y516800D01*
Y517799D01*
X553697Y518799D01*
X550698D01*
X116099Y963198D02*
X115099Y964198D01*
X113100D01*
X112100Y963198D01*
Y959200D01*
X113100Y958200D01*
X115099D01*
X116099Y959200D01*
X122097Y964198D02*
X118098D01*
Y961199D01*
X120097Y962199D01*
X121097D01*
X122097Y961199D01*
Y959200D01*
X121097Y958200D01*
X119098D01*
X118098Y959200D01*
X117399Y1046698D02*
X116399Y1047698D01*
X114400D01*
X113400Y1046698D01*
Y1042700D01*
X114400Y1041700D01*
X116399D01*
X117399Y1042700D01*
X122397Y1041700D02*
Y1047698D01*
X119398Y1044699D01*
X123397D01*
X548699Y577298D02*
X547699Y578298D01*
X545700D01*
X544700Y577298D01*
Y573300D01*
X545700Y572300D01*
X547699D01*
X548699Y573300D01*
X550698Y577298D02*
X551698Y578298D01*
X553697D01*
X554697Y577298D01*
Y576299D01*
X553697Y575299D01*
X552697D01*
X553697D01*
X554697Y574299D01*
Y573300D01*
X553697Y572300D01*
X551698D01*
X550698Y573300D01*
X478799Y609398D02*
X477799Y610398D01*
X475800D01*
X474800Y609398D01*
Y605400D01*
X475800Y604400D01*
X477799D01*
X478799Y605400D01*
X484797Y604400D02*
X480798D01*
X484797Y608399D01*
Y609398D01*
X483797Y610398D01*
X481798D01*
X480798Y609398D01*
X192299Y1017898D02*
X191299Y1018898D01*
X189300D01*
X188300Y1017898D01*
Y1013900D01*
X189300Y1012900D01*
X191299D01*
X192299Y1013900D01*
X194298Y1012900D02*
X196297D01*
X195298D01*
Y1018898D01*
X194298Y1017898D01*
X191299Y901500D02*
Y907498D01*
X188300Y904499D01*
X192299D01*
X194298Y907498D02*
X198297D01*
Y906498D01*
X194298Y902500D01*
Y901500D01*
X200296Y906498D02*
X201296Y907498D01*
X203295D01*
X204295Y906498D01*
Y902500D01*
X203295Y901500D01*
X201296D01*
X200296Y902500D01*
Y906498D01*
X206294D02*
X207294Y907498D01*
X209293D01*
X210293Y906498D01*
Y902500D01*
X209293Y901500D01*
X207294D01*
X206294Y902500D01*
Y906498D01*
X218290Y904499D02*
X220290D01*
X218290Y903499D02*
X220290D01*
Y907498D02*
Y900500D01*
X223289Y901500D02*
Y906498D01*
Y904499D01*
X222289D01*
X224288D01*
X223289D01*
Y906498D01*
X224288Y907498D01*
X278500Y884398D02*
Y878400D01*
X281499D01*
X282499Y879400D01*
Y880399D01*
X281499Y881399D01*
X278500D01*
X281499D01*
X282499Y882399D01*
Y883398D01*
X281499Y884398D01*
X278500D01*
X288497Y878400D02*
X284498D01*
X288497Y882399D01*
Y883398D01*
X287497Y884398D01*
X285498D01*
X284498Y883398D01*
X426600Y886498D02*
Y880500D01*
X429599D01*
X430599Y881500D01*
Y882499D01*
X429599Y883499D01*
X426600D01*
X429599D01*
X430599Y884499D01*
Y885498D01*
X429599Y886498D01*
X426600D01*
X432598Y880500D02*
X434597D01*
X433598D01*
Y886498D01*
X432598Y885498D01*
X268732Y115232D02*
X294268D01*
X268768Y81768D02*
Y115197D01*
Y81768D02*
X294232D01*
X302232Y89768D01*
Y98500D01*
Y107268D01*
X294268Y115232D02*
X302232Y107268D01*
X255400Y237798D02*
Y232800D01*
X256400Y231800D01*
X258399D01*
X259399Y232800D01*
Y237798D01*
X265397Y231800D02*
X261398D01*
X265397Y235799D01*
Y236798D01*
X264397Y237798D01*
X262398D01*
X261398Y236798D01*
X455700Y148500D02*
Y154498D01*
X458699D01*
X459699Y153498D01*
Y151499D01*
X458699Y150499D01*
X455700D01*
X457699D02*
X459699Y148500D01*
X465697D02*
X461698D01*
X465697Y152499D01*
Y153498D01*
X464697Y154498D01*
X462698D01*
X461698Y153498D01*
X471695Y154498D02*
X467696D01*
Y151499D01*
X469696Y152499D01*
X470695D01*
X471695Y151499D01*
Y149500D01*
X470695Y148500D01*
X468696D01*
X467696Y149500D01*
X458200Y90000D02*
Y95998D01*
X461199D01*
X462199Y94998D01*
Y92999D01*
X461199Y91999D01*
X458200D01*
X460199D02*
X462199Y90000D01*
X468197D02*
X464198D01*
X468197Y93999D01*
Y94998D01*
X467197Y95998D01*
X465198D01*
X464198Y94998D01*
X473195Y90000D02*
Y95998D01*
X470196Y92999D01*
X474195D01*
X493700Y128500D02*
Y134498D01*
X496699D01*
X497699Y133498D01*
Y131499D01*
X496699Y130499D01*
X493700D01*
X495699D02*
X497699Y128500D01*
X503697D02*
X499698D01*
X503697Y132499D01*
Y133498D01*
X502697Y134498D01*
X500698D01*
X499698Y133498D01*
X505696D02*
X506696Y134498D01*
X508695D01*
X509695Y133498D01*
Y132499D01*
X508695Y131499D01*
X507695D01*
X508695D01*
X509695Y130499D01*
Y129500D01*
X508695Y128500D01*
X506696D01*
X505696Y129500D01*
X143200Y278898D02*
Y272900D01*
Y274899D01*
X147199Y278898D01*
X144200Y275899D01*
X147199Y272900D01*
X149198D02*
X151197D01*
X150198D01*
Y278898D01*
X149198Y277898D01*
X157195Y272900D02*
Y278898D01*
X154196Y275899D01*
X158195D01*
X147499Y152798D02*
X143500D01*
Y146800D01*
X147499D01*
X143500Y149799D02*
X145499D01*
X149498Y146800D02*
Y152798D01*
X153497Y146800D01*
Y152798D01*
X159495Y151798D02*
X158495Y152798D01*
X156496D01*
X155496Y151798D01*
Y147800D01*
X156496Y146800D01*
X158495D01*
X159495Y147800D01*
X161494Y146800D02*
X163494D01*
X162494D01*
Y152798D01*
X161494Y151798D01*
X272599Y123698D02*
X271599Y124698D01*
X269600D01*
X268600Y123698D01*
Y119700D01*
X269600Y118700D01*
X271599D01*
X272599Y119700D01*
X274598Y118700D02*
X276597D01*
X275598D01*
Y124698D01*
X274598Y123698D01*
X279596Y119700D02*
X280596Y118700D01*
X282595D01*
X283595Y119700D01*
Y123698D01*
X282595Y124698D01*
X280596D01*
X279596Y123698D01*
Y122699D01*
X280596Y121699D01*
X283595D01*
X398199Y98598D02*
X397199Y99598D01*
X395200D01*
X394200Y98598D01*
Y94600D01*
X395200Y93600D01*
X397199D01*
X398199Y94600D01*
X400198Y93600D02*
X402197D01*
X401198D01*
Y99598D01*
X400198Y98598D01*
X405196D02*
X406196Y99598D01*
X408195D01*
X409195Y98598D01*
Y97599D01*
X408195Y96599D01*
X409195Y95599D01*
Y94600D01*
X408195Y93600D01*
X406196D01*
X405196Y94600D01*
Y95599D01*
X406196Y96599D01*
X405196Y97599D01*
Y98598D01*
X406196Y96599D02*
X408195D01*
X395699Y153798D02*
X394699Y154798D01*
X392700D01*
X391700Y153798D01*
Y149800D01*
X392700Y148800D01*
X394699D01*
X395699Y149800D01*
X397698Y148800D02*
X399697D01*
X398698D01*
Y154798D01*
X397698Y153798D01*
X402696Y154798D02*
X406695D01*
Y153798D01*
X402696Y149800D01*
Y148800D01*
X341199Y100598D02*
X340199Y101598D01*
X338200D01*
X337200Y100598D01*
Y96600D01*
X338200Y95600D01*
X340199D01*
X341199Y96600D01*
X343198Y95600D02*
X345197D01*
X344198D01*
Y101598D01*
X343198Y100598D01*
X352195Y101598D02*
X350196Y100598D01*
X348196Y98599D01*
Y96600D01*
X349196Y95600D01*
X351196D01*
X352195Y96600D01*
Y97599D01*
X351196Y98599D01*
X348196D01*
X341199Y153098D02*
X340199Y154098D01*
X338200D01*
X337200Y153098D01*
Y149100D01*
X338200Y148100D01*
X340199D01*
X341199Y149100D01*
X343198Y148100D02*
X345197D01*
X344198D01*
Y154098D01*
X343198Y153098D01*
X352195Y154098D02*
X348196D01*
Y151099D01*
X350196Y152099D01*
X351196D01*
X352195Y151099D01*
Y149100D01*
X351196Y148100D01*
X349196D01*
X348196Y149100D01*
X385600Y216898D02*
X389599D01*
Y215898D01*
X385600Y211900D01*
Y210900D01*
X391598Y213899D02*
X395597D01*
X401595Y215898D02*
X400595Y216898D01*
X398596D01*
X397596Y215898D01*
Y214899D01*
X398596Y213899D01*
X400595D01*
X401595Y212899D01*
Y211900D01*
X400595Y210900D01*
X398596D01*
X397596Y211900D01*
X406593Y210900D02*
X404594D01*
X403594Y211900D01*
Y213899D01*
X404594Y214899D01*
X406593D01*
X407593Y213899D01*
Y212899D01*
X403594D01*
X411592Y208901D02*
X412591D01*
X413591Y209900D01*
Y214899D01*
X410592D01*
X409592Y213899D01*
Y211900D01*
X410592Y210900D01*
X413591D01*
X415590D02*
Y214899D01*
X416590D01*
X417590Y213899D01*
Y210900D01*
Y213899D01*
X418589Y214899D01*
X419589Y213899D01*
Y210900D01*
X424587D02*
X422588D01*
X421588Y211900D01*
Y213899D01*
X422588Y214899D01*
X424587D01*
X425587Y213899D01*
Y212899D01*
X421588D01*
X427586Y210900D02*
Y214899D01*
X430585D01*
X431585Y213899D01*
Y210900D01*
X434584Y215898D02*
Y214899D01*
X433584D01*
X435584D01*
X434584D01*
Y211900D01*
X435584Y210900D01*
D49*
X274307Y954185D02*
G03*
X274307Y954185I-43307J0D01*
G01*
X313965Y1042095D02*
G03*
X313965Y1041307I0J-394D01*
G01*
D02*
G03*
X313965Y1042095I0J394D01*
G01*
X231000Y1005492D02*
Y1009492D01*
X229000Y1007492D02*
X233000D01*
X550787Y681988D02*
X553996D01*
Y679390D02*
Y681988D01*
X550787Y670492D02*
X553996D01*
Y673091D01*
X516736Y771669D02*
Y885842D01*
X566736D01*
Y771669D02*
Y885842D01*
X516736Y771669D02*
X566736D01*
X486071Y670326D02*
Y680192D01*
X494929Y670326D02*
Y680192D01*
X546826Y641429D02*
X556692D01*
X546826Y632571D02*
X556692D01*
X254567Y784429D02*
X264433D01*
X254567Y775571D02*
X264433D01*
X332308Y785429D02*
X342174D01*
X332308Y776571D02*
X342174D01*
X482992Y716752D02*
Y723248D01*
Y716752D02*
X489134D01*
Y723248D01*
X482992D02*
X489134D01*
X540429Y729752D02*
Y736248D01*
Y729752D02*
X546571D01*
Y736248D01*
X540429D02*
X546571D01*
X338326Y413571D02*
X348192D01*
X338326Y422429D02*
X348192D01*
X338826Y451429D02*
X348692D01*
X338826Y442571D02*
X348692D01*
X295067Y413929D02*
X304933D01*
X295067Y405071D02*
X304933D01*
X294567Y375929D02*
X304433D01*
X294567Y367071D02*
X304433D01*
X295326Y334071D02*
X305192D01*
X295326Y342929D02*
X305192D01*
X338808Y375929D02*
X348674D01*
X338808Y367071D02*
X348674D01*
X495067Y423071D02*
X504933D01*
X495067Y431929D02*
X504933D01*
X495567Y513929D02*
X505433D01*
X495567Y505071D02*
X505433D01*
X494067Y355929D02*
X503933D01*
X494067Y347071D02*
X503933D01*
X338308Y336071D02*
X348174D01*
X338308Y344929D02*
X348174D01*
X494308Y458571D02*
X504174D01*
X494308Y467429D02*
X504174D01*
X446154Y418398D02*
X452846D01*
X446154Y430602D02*
X452846D01*
Y418398D02*
Y430602D01*
X446154Y418398D02*
Y430602D01*
X205602Y380154D02*
Y386846D01*
X193398Y380154D02*
Y386846D01*
X205602D01*
X193398Y380154D02*
X205602D01*
X376932Y355559D02*
X388373D01*
X376932Y364441D02*
X388373D01*
X294279Y443059D02*
X305721D01*
X294279Y451941D02*
X305721D01*
X494432Y385559D02*
X505873D01*
X494432Y394441D02*
X505873D01*
X545127Y503559D02*
X556568D01*
X545127Y512441D02*
X556568D01*
X545127Y560059D02*
X556568D01*
X545127Y568941D02*
X556568D01*
X268673Y585173D02*
Y606827D01*
Y585173D02*
X290327D01*
Y606827D01*
X268673D02*
X290327D01*
X110067Y672071D02*
X119933D01*
X110067Y680929D02*
X119933D01*
X108826Y636571D02*
X118692D01*
X108826Y645429D02*
X118692D01*
X108326Y597929D02*
X118192D01*
X108326Y589071D02*
X118192D01*
X219826Y501429D02*
X229692D01*
X219826Y492571D02*
X229692D01*
X294932Y501441D02*
X306373D01*
X294932Y492559D02*
X306373D01*
X179000Y636500D02*
X199000D01*
X179000Y686500D02*
X199000D01*
Y636500D02*
Y686500D01*
X179000Y636500D02*
Y686500D01*
X381000Y662333D02*
Y681500D01*
Y651500D02*
Y681500D01*
X361000Y651500D02*
Y681500D01*
Y651500D02*
X381000D01*
X361000Y681500D02*
X381000D01*
X284000Y669500D02*
Y679500D01*
X254000Y669500D02*
X284000D01*
X254000D02*
Y679500D01*
X284000D01*
X371500Y567000D02*
X381500D01*
Y517000D02*
Y567000D01*
X371500Y517000D02*
Y567000D01*
Y517000D02*
X381500D01*
X180000Y572500D02*
X190000D01*
X180000D02*
Y602500D01*
X190000D01*
Y572500D02*
Y602500D01*
X410000Y652500D02*
X420000D01*
Y612500D02*
Y652500D01*
X410000Y612500D02*
Y652500D01*
Y612500D02*
X420000D01*
X264500Y539000D02*
X284500D01*
X264500Y529000D02*
Y539000D01*
Y529000D02*
X284500D01*
Y539000D01*
X371000Y583500D02*
X381000D01*
X371000D02*
Y613500D01*
X381000D01*
Y583500D02*
Y613500D01*
X338752Y708929D02*
X345248D01*
Y715071D01*
X338752D02*
X345248D01*
X338752Y708929D02*
Y715071D01*
X372559Y709127D02*
Y720568D01*
X381441Y709127D02*
Y720568D01*
X350432Y492559D02*
X361873D01*
X350432Y501441D02*
X361873D01*
X110432Y751059D02*
X121873D01*
X110432Y759941D02*
X121873D01*
X110627Y714059D02*
X122068D01*
X110627Y722941D02*
X122068D01*
X390559Y927752D02*
Y930350D01*
X387350Y927752D02*
X390559D01*
Y936650D02*
Y939248D01*
X387350D02*
X390559D01*
X384071Y1101326D02*
Y1111192D01*
X392929Y1101326D02*
Y1111192D01*
Y994808D02*
Y1004674D01*
X384071Y994808D02*
Y1004674D01*
X289311Y966157D02*
Y968520D01*
X315689D01*
Y966157D02*
Y968520D01*
X462996Y1019512D02*
Y1022110D01*
X459787Y1019512D02*
X462996D01*
Y1028409D02*
Y1031008D01*
X459787D02*
X462996D01*
X459059Y929752D02*
Y932350D01*
X455850Y929752D02*
X459059D01*
Y938650D02*
Y941248D01*
X455850D02*
X459059D01*
X384071Y1042567D02*
Y1052433D01*
X392929Y1042567D02*
Y1052433D01*
X336559Y132279D02*
Y143721D01*
X345441Y132279D02*
Y143721D01*
X263551Y176606D02*
Y227394D01*
X282449Y176606D02*
Y227394D01*
X263551D02*
X282449D01*
X263551Y176606D02*
X282449D01*
X392500Y205500D02*
X505000D01*
X385000D02*
X392500D01*
X385000Y195500D02*
Y205500D01*
Y195500D02*
X505000D01*
Y205500D01*
X501929Y114808D02*
Y124674D01*
X493071Y114808D02*
Y124674D01*
X466429Y76326D02*
Y86192D01*
X457571Y76326D02*
Y86192D01*
X463929Y134808D02*
Y144674D01*
X455071Y134808D02*
Y144674D01*
X402441Y77779D02*
Y89221D01*
X393559Y77779D02*
Y89221D01*
X391059Y132932D02*
Y144374D01*
X399941Y132932D02*
Y144374D01*
X336559Y79779D02*
Y91221D01*
X345441Y79779D02*
Y91221D01*
X151500Y269500D02*
X201500D01*
X151500Y249500D02*
X201500D01*
Y269500D01*
X151500Y249500D02*
Y269500D01*
X144909Y137362D02*
X156130D01*
X165185D02*
X175815D01*
X184870D02*
X196091D01*
Y82638D02*
Y98681D01*
Y121319D02*
Y137362D01*
X144909Y82638D02*
X156130D01*
X165185D02*
X165972D01*
X175028D02*
X175815D01*
X184870D02*
X196091D01*
X144909D02*
Y98681D01*
Y121319D02*
Y137362D01*
D50*
X547992Y683720D02*
G03*
X547992Y683720I-492J0D01*
G01*
X480118Y724567D02*
G03*
X480118Y724567I-492J0D01*
G01*
X537555Y737567D02*
G03*
X537555Y737567I-492J0D01*
G01*
X441724Y431390D02*
G03*
X441724Y431390I-492J0D01*
G01*
X193102Y375232D02*
G03*
X193102Y375232I-492J0D01*
G01*
X263750Y609622D02*
G03*
X263750Y609622I-492J0D01*
G01*
X337925Y705563D02*
G03*
X337925Y705563I-492J0D01*
G01*
X384555Y940980D02*
G03*
X384555Y940980I-492J0D01*
G01*
X316102Y977772D02*
G03*
X316102Y977772I-492J0D01*
G01*
X456992Y1032740D02*
G03*
X456992Y1032740I-492J0D01*
G01*
X453055Y942980D02*
G03*
X453055Y942980I-492J0D01*
G01*
X259221Y227847D02*
G03*
X259221Y227847I-492J0D01*
G01*
X161150Y142776D02*
G03*
X161150Y142776I-492J0D01*
G01*
D51*
X558948Y766957D02*
G03*
X558948Y766957I-495J0D01*
G01*
D52*
X136000Y824142D02*
G03*
X136000Y823748I0J-197D01*
G01*
D02*
G03*
X136000Y824142I0J197D01*
G01*
D53*
X273004Y603480D02*
G03*
X273004Y603480I-984J0D01*
G01*
D54*
X561205Y1094000D02*
Y1134000D01*
X532858Y1094000D02*
X561205D01*
X565142D01*
Y1134000D01*
X561205D02*
X565142D01*
X532858D02*
X561205D01*
X532858Y1094000D02*
Y1134000D01*
X562705Y975000D02*
Y1015000D01*
X534358Y975000D02*
X562705D01*
X566642D01*
Y1015000D01*
X562705D02*
X566642D01*
X534358D02*
X562705D01*
X534358Y975000D02*
Y1015000D01*
X422000Y340295D02*
X462000D01*
X422000D02*
Y368642D01*
Y336358D02*
Y340295D01*
Y336358D02*
X462000D01*
Y340295D01*
Y368642D01*
X422000D02*
X462000D01*
X158500Y1109358D02*
X198500D01*
X158500D02*
Y1137705D01*
Y1141642D01*
X198500D01*
Y1137705D02*
Y1141642D01*
Y1109358D02*
Y1137705D01*
X158500D02*
X198500D01*
D55*
X113953Y826701D02*
Y869614D01*
X150567D01*
Y826701D02*
Y869614D01*
X113953Y826701D02*
X150567D01*
X258098Y1035598D02*
X302902D01*
X258098Y1060402D02*
X300500D01*
D56*
X192000Y688168D02*
Y691500D01*
X195332Y688168D01*
X196165D01*
X196998Y689001D01*
Y690667D01*
X196165Y691500D01*
X182000Y689500D02*
Y687834D01*
Y688667D01*
X186998D01*
X186165Y689500D01*
X182833Y635500D02*
X182000Y634667D01*
Y633001D01*
X182833Y632168D01*
X186165D01*
X186998Y633001D01*
Y634667D01*
X186165Y635500D01*
X185332D01*
X184499Y634667D01*
Y632168D01*
X192000Y635500D02*
Y633834D01*
Y634667D01*
X196998D01*
X196165Y635500D01*
Y631335D02*
X196998Y630502D01*
Y628835D01*
X196165Y628002D01*
X192833D01*
X192000Y628835D01*
Y630502D01*
X192833Y631335D01*
X196165D01*
X378000Y648500D02*
Y650166D01*
Y649333D01*
X373002D01*
X373835Y648500D01*
X368000Y649832D02*
Y646500D01*
X364668Y649832D01*
X363835D01*
X363002Y648999D01*
Y647333D01*
X363835Y646500D01*
X373002Y685832D02*
Y682500D01*
X375501D01*
X374668Y684166D01*
Y684999D01*
X375501Y685832D01*
X377167D01*
X378000Y684999D01*
Y683333D01*
X377167Y682500D01*
X363002Y685832D02*
X363835Y684166D01*
X365501Y682500D01*
X367167D01*
X368000Y683333D01*
Y684999D01*
X367167Y685832D01*
X366334D01*
X365501Y684999D01*
Y682500D01*
X150500Y256500D02*
X148834D01*
X149667D01*
Y251502D01*
X150500Y252335D01*
X146335D02*
X145502Y251502D01*
X143835D01*
X143002Y252335D01*
Y255667D01*
X143835Y256500D01*
X145502D01*
X146335Y255667D01*
Y252335D01*
X150500Y265667D02*
X149667Y266500D01*
X148001D01*
X147168Y265667D01*
Y262335D01*
X148001Y261502D01*
X149667D01*
X150500Y262335D01*
Y263168D01*
X149667Y264001D01*
X147168D01*
X204500Y266500D02*
X202834D01*
X203667D01*
Y261502D01*
X204500Y262335D01*
X203168Y256500D02*
X206500D01*
X203168Y253168D01*
Y252335D01*
X204001Y251502D01*
X205667D01*
X206500Y252335D01*
D57*
X268669Y223457D02*
G03*
X268669Y223457I-1181J0D01*
G01*
M02*
