G04*
G04 #@! TF.GenerationSoftware,Altium Limited,Altium Designer,23.2.1 (34)*
G04*
G04 Layer_Physical_Order=1*
G04 Layer_Color=255*
%FSLAX25Y25*%
%MOIN*%
G70*
G04*
G04 #@! TF.SameCoordinates,BF209CEF-B3CD-4BDF-936B-CE2084C87205*
G04*
G04*
G04 #@! TF.FilePolarity,Positive*
G04*
G01*
G75*
%ADD12C,0.01000*%
%ADD15R,0.11417X0.04331*%
%ADD16R,0.05733X0.05136*%
G04:AMPARAMS|DCode=17|XSize=23.62mil|YSize=64.96mil|CornerRadius=2.01mil|HoleSize=0mil|Usage=FLASHONLY|Rotation=90.000|XOffset=0mil|YOffset=0mil|HoleType=Round|Shape=RoundedRectangle|*
%AMROUNDEDRECTD17*
21,1,0.02362,0.06095,0,0,90.0*
21,1,0.01961,0.06496,0,0,90.0*
1,1,0.00402,0.03047,0.00980*
1,1,0.00402,0.03047,-0.00980*
1,1,0.00402,-0.03047,-0.00980*
1,1,0.00402,-0.03047,0.00980*
%
%ADD17ROUNDEDRECTD17*%
%ADD18R,0.05339X0.04349*%
%ADD24R,0.06102X0.06102*%
%ADD25C,0.06102*%
G04:AMPARAMS|DCode=26|XSize=94.49mil|YSize=196.85mil|CornerRadius=47.24mil|HoleSize=0mil|Usage=FLASHONLY|Rotation=0.000|XOffset=0mil|YOffset=0mil|HoleType=Round|Shape=RoundedRectangle|*
%AMROUNDEDRECTD26*
21,1,0.09449,0.10236,0,0,0.0*
21,1,0.00000,0.19685,0,0,0.0*
1,1,0.09449,0.00000,-0.05118*
1,1,0.09449,0.00000,-0.05118*
1,1,0.09449,0.00000,0.05118*
1,1,0.09449,0.00000,0.05118*
%
%ADD26ROUNDEDRECTD26*%
%ADD28C,0.20000*%
%ADD29C,0.05906*%
%ADD30R,0.05906X0.05906*%
%ADD31C,0.05000*%
D12*
X171900Y253500D02*
X212000Y213400D01*
X103900Y253500D02*
X171900D01*
X98900Y248500D02*
X103900Y253500D01*
X346100Y124500D02*
X372200D01*
X260500Y116929D02*
Y136200D01*
Y116847D02*
Y116929D01*
X284953Y117500D01*
X257000Y116847D02*
X260500Y116929D01*
X284953Y117500D02*
X308000D01*
X256700Y90800D02*
Y116847D01*
X253500Y64347D02*
X257000D01*
X238800D02*
X253500D01*
X189600Y80500D02*
Y169220D01*
X413500Y98900D02*
X416800D01*
X413500Y74100D02*
Y98900D01*
X311500Y95600D02*
Y117500D01*
Y95600D02*
X314000Y93100D01*
Y68653D02*
Y93100D01*
X195800Y190500D02*
X199800Y186500D01*
X195800Y190500D02*
Y210500D01*
X191800Y214500D02*
X195800Y210500D01*
X144500Y214500D02*
X191800D01*
X112500Y246500D02*
X144500Y214500D01*
X199800Y186500D02*
X203272D01*
X197800Y184500D02*
X199800Y186500D01*
X197800Y154500D02*
Y184500D01*
Y154500D02*
X201800Y150500D01*
X246200D01*
X260500Y136200D01*
X257000Y116847D02*
X260500D01*
X189600Y80500D02*
X189689D01*
X127600D02*
X189600D01*
X105100Y58000D02*
X127600Y80500D01*
X90972Y58000D02*
X105100D01*
X86500Y62472D02*
X90972Y58000D01*
X174728Y204800D02*
Y206500D01*
Y204800D02*
X184000D01*
X193600Y195200D01*
Y173220D02*
Y195200D01*
X189600Y169220D02*
X193600Y173220D01*
X86500Y62472D02*
Y109716D01*
X96343Y119559D01*
X255700Y182500D02*
X306000D01*
X254700Y181500D02*
X255700Y182500D01*
X203272Y181500D02*
X254700D01*
X174728Y191500D02*
X179989D01*
X190239Y181250D01*
Y179600D02*
Y181250D01*
X174728Y196500D02*
X178600D01*
X180800Y198700D01*
X180400Y176500D02*
X184000Y172900D01*
X174728Y176500D02*
X180400D01*
X348000Y60500D02*
X360000D01*
X378000D01*
X356000Y64500D02*
X360000Y60500D01*
X356000Y64500D02*
Y108500D01*
X340695Y123805D02*
X356000Y108500D01*
X311500Y123805D02*
X340695D01*
X314000Y62347D02*
X321353D01*
X327100Y56600D01*
X396000D01*
X413500Y74100D01*
X98900Y236500D02*
X102500D01*
X98900D02*
Y248500D01*
X212000Y198200D02*
Y213400D01*
X205300Y191500D02*
X212000Y198200D01*
X203272Y191500D02*
X205300D01*
X199600Y196500D02*
X203272D01*
X198600Y197500D02*
X199600Y196500D01*
X198600Y197500D02*
Y220939D01*
X169039Y250500D02*
X198600Y220939D01*
X108900Y250500D02*
X169039D01*
X108900Y240100D02*
Y250500D01*
Y240100D02*
X112500Y236500D01*
X343500Y127100D02*
X346100Y124500D01*
X308000Y127100D02*
X343500D01*
X308000Y117500D02*
Y127100D01*
Y117500D02*
X311500D01*
X413500Y98900D02*
Y98982D01*
X416800Y98900D02*
Y136200D01*
X375500Y85300D02*
X381300Y79500D01*
X375500Y85300D02*
Y118982D01*
X203272Y166500D02*
X400000D01*
X416000Y182500D01*
X170000Y171500D02*
X174728D01*
X167200Y168700D02*
X170000Y171500D01*
X167200Y142000D02*
Y168700D01*
X174728Y166500D02*
X181200D01*
X183000Y164700D01*
X184700Y192900D02*
Y200500D01*
X182600Y202600D02*
X184700Y200500D01*
X177900Y202600D02*
X182600D01*
X176800Y201500D02*
X177900Y202600D01*
X174728Y201500D02*
X176800D01*
X186100Y159500D02*
Y167300D01*
X189100Y170300D01*
Y174500D01*
X187080Y176520D02*
X189100Y174500D01*
X182980Y176520D02*
X187080D01*
X178000Y181500D02*
X182980Y176520D01*
X174728Y181500D02*
X178000D01*
X180600Y186500D02*
X183400Y183700D01*
X174728Y186500D02*
X180600D01*
X242653Y123153D02*
X257000D01*
X200000Y80500D02*
X242653Y123153D01*
X189689Y80500D02*
X200000D01*
X257000Y70653D02*
X260500D01*
Y48500D02*
Y70653D01*
X54700Y84430D02*
X76657Y62472D01*
X54700Y84430D02*
Y235900D01*
X68900Y250100D01*
X88900D01*
X92500Y246500D01*
X203272Y171500D02*
X385000D01*
X203272Y176500D02*
X320000D01*
X326000Y182500D01*
X375500Y124500D02*
X408000D01*
X413500Y119000D01*
Y104500D02*
Y119000D01*
X213311Y80500D02*
X222647D01*
X238800Y64347D01*
X82500Y246500D02*
X87500Y241500D01*
Y140800D02*
Y241500D01*
Y140800D02*
X100000Y128300D01*
Y102400D02*
Y128300D01*
X98500Y100900D02*
X100000Y102400D01*
X98500Y87600D02*
Y100900D01*
X96343Y85443D02*
X98500Y87600D01*
X96343Y62472D02*
Y85443D01*
X378000Y66018D02*
Y79800D01*
X372200Y85600D02*
X378000Y79800D01*
X372200Y85600D02*
Y124500D01*
X375500D01*
X256700Y116847D02*
X257000D01*
X253500Y87600D02*
X256700Y90800D01*
X253500Y64347D02*
Y87600D01*
X184732Y97232D02*
X184768Y97197D01*
D15*
X189689Y80500D02*
D03*
X213311D02*
D03*
D16*
X257000Y123153D02*
D03*
Y116847D02*
D03*
X314000Y62347D02*
D03*
Y68653D02*
D03*
X311500Y123805D02*
D03*
Y117500D02*
D03*
X257000Y70653D02*
D03*
Y64347D02*
D03*
D17*
X174728Y206500D02*
D03*
Y201500D02*
D03*
Y196500D02*
D03*
Y191500D02*
D03*
Y186500D02*
D03*
Y181500D02*
D03*
Y176500D02*
D03*
Y171500D02*
D03*
Y166500D02*
D03*
Y161500D02*
D03*
X203272Y206500D02*
D03*
Y201500D02*
D03*
Y196500D02*
D03*
Y191500D02*
D03*
Y186500D02*
D03*
Y181500D02*
D03*
Y176500D02*
D03*
Y171500D02*
D03*
Y166500D02*
D03*
Y161500D02*
D03*
D18*
X413500Y98982D02*
D03*
Y104500D02*
D03*
X378000Y60500D02*
D03*
Y66018D02*
D03*
X375500Y118982D02*
D03*
Y124500D02*
D03*
D24*
X76657Y119559D02*
D03*
D25*
X96343D02*
D03*
X76657Y62472D02*
D03*
X86500D02*
D03*
X96343D02*
D03*
D26*
X64059Y92000D02*
D03*
X108941D02*
D03*
D28*
X30000Y23500D02*
D03*
Y257500D02*
D03*
X454000D02*
D03*
Y23500D02*
D03*
D29*
X416000Y182500D02*
D03*
X406000D02*
D03*
X396000D02*
D03*
X386000D02*
D03*
X376000D02*
D03*
X366000D02*
D03*
X356000D02*
D03*
X346000D02*
D03*
X336000D02*
D03*
X326000D02*
D03*
X316000D02*
D03*
X72500Y236500D02*
D03*
Y246500D02*
D03*
X82500Y236500D02*
D03*
Y246500D02*
D03*
X92500Y236500D02*
D03*
Y246500D02*
D03*
X102500Y236500D02*
D03*
Y246500D02*
D03*
X112500Y236500D02*
D03*
D30*
X306000Y182500D02*
D03*
X112500Y246500D02*
D03*
D31*
X190239Y179600D02*
D03*
X180800Y198700D02*
D03*
X184000Y172900D02*
D03*
X348000Y60500D02*
D03*
X416800Y136200D02*
D03*
X381300Y79500D02*
D03*
X167200Y142000D02*
D03*
X183000Y164700D02*
D03*
X184700Y192900D02*
D03*
X186100Y159500D02*
D03*
X183400Y183700D02*
D03*
X260500Y48500D02*
D03*
X385000Y171500D02*
D03*
M02*
