G04*
G04 #@! TF.GenerationSoftware,Altium Limited,Altium Designer,23.2.1 (34)*
G04*
G04 Layer_Color=8421504*
%FSLAX25Y25*%
%MOIN*%
G70*
G04*
G04 #@! TF.SameCoordinates,BF209CEF-B3CD-4BDF-936B-CE2084C87205*
G04*
G04*
G04 #@! TF.FilePolarity,Positive*
G04*
G01*
G75*
%ADD15R,0.11417X0.04331*%
%ADD16R,0.05733X0.05136*%
G04:AMPARAMS|DCode=17|XSize=23.62mil|YSize=64.96mil|CornerRadius=2.01mil|HoleSize=0mil|Usage=FLASHONLY|Rotation=90.000|XOffset=0mil|YOffset=0mil|HoleType=Round|Shape=RoundedRectangle|*
%AMROUNDEDRECTD17*
21,1,0.02362,0.06095,0,0,90.0*
21,1,0.01961,0.06496,0,0,90.0*
1,1,0.00402,0.03047,0.00980*
1,1,0.00402,0.03047,-0.00980*
1,1,0.00402,-0.03047,-0.00980*
1,1,0.00402,-0.03047,0.00980*
%
%ADD17ROUNDEDRECTD17*%
%ADD18R,0.05339X0.04349*%
D15*
X189689Y80500D02*
D03*
X213311D02*
D03*
D16*
X257000Y123153D02*
D03*
Y116847D02*
D03*
X314000Y62347D02*
D03*
Y68653D02*
D03*
X311500Y123805D02*
D03*
Y117500D02*
D03*
X257000Y70653D02*
D03*
Y64347D02*
D03*
D17*
X174728Y206500D02*
D03*
Y201500D02*
D03*
Y196500D02*
D03*
Y191500D02*
D03*
Y186500D02*
D03*
Y181500D02*
D03*
Y176500D02*
D03*
Y171500D02*
D03*
Y166500D02*
D03*
Y161500D02*
D03*
X203272Y206500D02*
D03*
Y201500D02*
D03*
Y196500D02*
D03*
Y191500D02*
D03*
Y186500D02*
D03*
Y181500D02*
D03*
Y176500D02*
D03*
Y171500D02*
D03*
Y166500D02*
D03*
Y161500D02*
D03*
D18*
X413500Y98982D02*
D03*
Y104500D02*
D03*
X378000Y60500D02*
D03*
Y66018D02*
D03*
X375500Y118982D02*
D03*
Y124500D02*
D03*
M02*
