G04*
G04 #@! TF.GenerationSoftware,Altium Limited,Altium Designer,23.2.1 (34)*
G04*
G04 Layer_Color=65535*
%FSLAX25Y25*%
%MOIN*%
G70*
G04*
G04 #@! TF.SameCoordinates,BF209CEF-B3CD-4BDF-936B-CE2084C87205*
G04*
G04*
G04 #@! TF.FilePolarity,Positive*
G04*
G01*
G75*
%ADD10C,0.00984*%
%ADD11C,0.02362*%
%ADD12C,0.01000*%
%ADD13C,0.00787*%
%ADD14C,0.00800*%
D10*
X175221Y209846D02*
G03*
X175221Y209846I-492J0D01*
G01*
X77150Y124776D02*
G03*
X77150Y124776I-492J0D01*
G01*
D11*
X184669Y205457D02*
G03*
X184669Y205457I-1181J0D01*
G01*
D12*
X184732Y97232D02*
X210268D01*
X184768Y63768D02*
Y97197D01*
Y63768D02*
X210232D01*
X218232Y71768D01*
Y80500D01*
Y89268D01*
X210268Y97232D02*
X218232Y89268D01*
X171400Y219798D02*
Y214800D01*
X172400Y213800D01*
X174399D01*
X175399Y214800D01*
Y219798D01*
X181397Y213800D02*
X177398D01*
X181397Y217799D01*
Y218798D01*
X180397Y219798D01*
X178398D01*
X177398Y218798D01*
X371700Y130500D02*
Y136498D01*
X374699D01*
X375699Y135498D01*
Y133499D01*
X374699Y132499D01*
X371700D01*
X373699D02*
X375699Y130500D01*
X381697D02*
X377698D01*
X381697Y134499D01*
Y135498D01*
X380697Y136498D01*
X378698D01*
X377698Y135498D01*
X387695Y136498D02*
X383696D01*
Y133499D01*
X385696Y134499D01*
X386695D01*
X387695Y133499D01*
Y131500D01*
X386695Y130500D01*
X384696D01*
X383696Y131500D01*
X374200Y72000D02*
Y77998D01*
X377199D01*
X378199Y76998D01*
Y74999D01*
X377199Y73999D01*
X374200D01*
X376199D02*
X378199Y72000D01*
X384197D02*
X380198D01*
X384197Y75999D01*
Y76998D01*
X383197Y77998D01*
X381198D01*
X380198Y76998D01*
X389195Y72000D02*
Y77998D01*
X386196Y74999D01*
X390195D01*
X409700Y110500D02*
Y116498D01*
X412699D01*
X413699Y115498D01*
Y113499D01*
X412699Y112499D01*
X409700D01*
X411699D02*
X413699Y110500D01*
X419697D02*
X415698D01*
X419697Y114499D01*
Y115498D01*
X418697Y116498D01*
X416698D01*
X415698Y115498D01*
X421696D02*
X422696Y116498D01*
X424695D01*
X425695Y115498D01*
Y114499D01*
X424695Y113499D01*
X423696D01*
X424695D01*
X425695Y112499D01*
Y111500D01*
X424695Y110500D01*
X422696D01*
X421696Y111500D01*
X59200Y260898D02*
Y254900D01*
Y256899D01*
X63199Y260898D01*
X60200Y257899D01*
X63199Y254900D01*
X65198D02*
X67197D01*
X66198D01*
Y260898D01*
X65198Y259898D01*
X73195Y254900D02*
Y260898D01*
X70196Y257899D01*
X74195D01*
X63499Y134798D02*
X59500D01*
Y128800D01*
X63499D01*
X59500Y131799D02*
X61499D01*
X65498Y128800D02*
Y134798D01*
X69497Y128800D01*
Y134798D01*
X75495Y133798D02*
X74495Y134798D01*
X72496D01*
X71496Y133798D01*
Y129800D01*
X72496Y128800D01*
X74495D01*
X75495Y129800D01*
X77494Y128800D02*
X79493D01*
X78494D01*
Y134798D01*
X77494Y133798D01*
X188599Y105698D02*
X187599Y106698D01*
X185600D01*
X184600Y105698D01*
Y101700D01*
X185600Y100700D01*
X187599D01*
X188599Y101700D01*
X190598Y100700D02*
X192597D01*
X191598D01*
Y106698D01*
X190598Y105698D01*
X195596Y101700D02*
X196596Y100700D01*
X198595D01*
X199595Y101700D01*
Y105698D01*
X198595Y106698D01*
X196596D01*
X195596Y105698D01*
Y104699D01*
X196596Y103699D01*
X199595D01*
X314199Y80598D02*
X313199Y81598D01*
X311200D01*
X310200Y80598D01*
Y76600D01*
X311200Y75600D01*
X313199D01*
X314199Y76600D01*
X316198Y75600D02*
X318197D01*
X317198D01*
Y81598D01*
X316198Y80598D01*
X321196D02*
X322196Y81598D01*
X324196D01*
X325195Y80598D01*
Y79599D01*
X324196Y78599D01*
X325195Y77599D01*
Y76600D01*
X324196Y75600D01*
X322196D01*
X321196Y76600D01*
Y77599D01*
X322196Y78599D01*
X321196Y79599D01*
Y80598D01*
X322196Y78599D02*
X324196D01*
X311699Y135798D02*
X310699Y136798D01*
X308700D01*
X307700Y135798D01*
Y131800D01*
X308700Y130800D01*
X310699D01*
X311699Y131800D01*
X313698Y130800D02*
X315697D01*
X314698D01*
Y136798D01*
X313698Y135798D01*
X318696Y136798D02*
X322695D01*
Y135798D01*
X318696Y131800D01*
Y130800D01*
X257199Y82598D02*
X256199Y83598D01*
X254200D01*
X253200Y82598D01*
Y78600D01*
X254200Y77600D01*
X256199D01*
X257199Y78600D01*
X259198Y77600D02*
X261197D01*
X260198D01*
Y83598D01*
X259198Y82598D01*
X268195Y83598D02*
X266196Y82598D01*
X264196Y80599D01*
Y78600D01*
X265196Y77600D01*
X267196D01*
X268195Y78600D01*
Y79599D01*
X267196Y80599D01*
X264196D01*
X257199Y135098D02*
X256199Y136098D01*
X254200D01*
X253200Y135098D01*
Y131100D01*
X254200Y130100D01*
X256199D01*
X257199Y131100D01*
X259198Y130100D02*
X261197D01*
X260198D01*
Y136098D01*
X259198Y135098D01*
X268195Y136098D02*
X264196D01*
Y133099D01*
X266196Y134099D01*
X267196D01*
X268195Y133099D01*
Y131100D01*
X267196Y130100D01*
X265196D01*
X264196Y131100D01*
X301600Y198898D02*
X305599D01*
Y197898D01*
X301600Y193900D01*
Y192900D01*
X307598Y195899D02*
X311597D01*
X317595Y197898D02*
X316595Y198898D01*
X314596D01*
X313596Y197898D01*
Y196899D01*
X314596Y195899D01*
X316595D01*
X317595Y194899D01*
Y193900D01*
X316595Y192900D01*
X314596D01*
X313596Y193900D01*
X322593Y192900D02*
X320594D01*
X319594Y193900D01*
Y195899D01*
X320594Y196899D01*
X322593D01*
X323593Y195899D01*
Y194899D01*
X319594D01*
X327592Y190901D02*
X328591D01*
X329591Y191900D01*
Y196899D01*
X326592D01*
X325592Y195899D01*
Y193900D01*
X326592Y192900D01*
X329591D01*
X331590D02*
Y196899D01*
X332590D01*
X333590Y195899D01*
Y192900D01*
Y195899D01*
X334589Y196899D01*
X335589Y195899D01*
Y192900D01*
X340587D02*
X338588D01*
X337588Y193900D01*
Y195899D01*
X338588Y196899D01*
X340587D01*
X341587Y195899D01*
Y194899D01*
X337588D01*
X343586Y192900D02*
Y196899D01*
X346585D01*
X347585Y195899D01*
Y192900D01*
X350584Y197898D02*
Y196899D01*
X349585D01*
X351584D01*
X350584D01*
Y193900D01*
X351584Y192900D01*
D13*
X252559Y114279D02*
Y125721D01*
X261441Y114279D02*
Y125721D01*
X179551Y158606D02*
Y209394D01*
X198449Y158606D02*
Y209394D01*
X179551D02*
X198449D01*
X179551Y158606D02*
X198449D01*
X308500Y187500D02*
X421000D01*
X301000D02*
X308500D01*
X301000Y177500D02*
Y187500D01*
Y177500D02*
X421000D01*
Y187500D01*
X417929Y96808D02*
Y106674D01*
X409071Y96808D02*
Y106674D01*
X382429Y58326D02*
Y68192D01*
X373571Y58326D02*
Y68192D01*
X379929Y116808D02*
Y126674D01*
X371071Y116808D02*
Y126674D01*
X318441Y59779D02*
Y71221D01*
X309559Y59779D02*
Y71221D01*
X307059Y114932D02*
Y126374D01*
X315941Y114932D02*
Y126374D01*
X252559Y61779D02*
Y73221D01*
X261441Y61779D02*
Y73221D01*
X67500Y251500D02*
X117500D01*
X67500Y231500D02*
X117500D01*
Y251500D01*
X67500Y231500D02*
Y251500D01*
X60909Y119362D02*
X72130D01*
X81185D02*
X91815D01*
X100870D02*
X112091D01*
Y64638D02*
Y80681D01*
Y103319D02*
Y119362D01*
X60909Y64638D02*
X72130D01*
X81185D02*
X81972D01*
X91028D02*
X91815D01*
X100870D02*
X112091D01*
X60909D02*
Y80681D01*
Y103319D02*
Y119362D01*
D14*
X66500Y238500D02*
X64834D01*
X65667D01*
Y233502D01*
X66500Y234335D01*
X62335D02*
X61502Y233502D01*
X59835D01*
X59002Y234335D01*
Y237667D01*
X59835Y238500D01*
X61502D01*
X62335Y237667D01*
Y234335D01*
X66500Y247667D02*
X65667Y248500D01*
X64001D01*
X63168Y247667D01*
Y244335D01*
X64001Y243502D01*
X65667D01*
X66500Y244335D01*
Y245168D01*
X65667Y246001D01*
X63168D01*
X120500Y248500D02*
X118834D01*
X119667D01*
Y243502D01*
X120500Y244335D01*
X119168Y238500D02*
X122500D01*
X119168Y235168D01*
Y234335D01*
X120001Y233502D01*
X121667D01*
X122500Y234335D01*
M02*
