G04*
G04 #@! TF.GenerationSoftware,Altium Limited,Altium Designer,23.2.1 (34)*
G04*
G04 Layer_Color=8388736*
%FSLAX25Y25*%
%MOIN*%
G70*
G04*
G04 #@! TF.SameCoordinates,BF209CEF-B3CD-4BDF-936B-CE2084C87205*
G04*
G04*
G04 #@! TF.FilePolarity,Negative*
G04*
G01*
G75*
%ADD16R,0.05733X0.05136*%
%ADD18R,0.05339X0.04349*%
%ADD19R,0.12217X0.05131*%
G04:AMPARAMS|DCode=20|XSize=31.62mil|YSize=72.96mil|CornerRadius=6.01mil|HoleSize=0mil|Usage=FLASHONLY|Rotation=90.000|XOffset=0mil|YOffset=0mil|HoleType=Round|Shape=RoundedRectangle|*
%AMROUNDEDRECTD20*
21,1,0.03162,0.06095,0,0,90.0*
21,1,0.01961,0.07296,0,0,90.0*
1,1,0.01202,0.03047,0.00980*
1,1,0.01202,0.03047,-0.00980*
1,1,0.01202,-0.03047,-0.00980*
1,1,0.01202,-0.03047,0.00980*
%
%ADD20ROUNDEDRECTD20*%
%ADD21C,0.20800*%
%ADD22C,0.06706*%
%ADD23R,0.06706X0.06706*%
%ADD24R,0.06102X0.06102*%
%ADD25C,0.06102*%
G04:AMPARAMS|DCode=26|XSize=94.49mil|YSize=196.85mil|CornerRadius=47.24mil|HoleSize=0mil|Usage=FLASHONLY|Rotation=0.000|XOffset=0mil|YOffset=0mil|HoleType=Round|Shape=RoundedRectangle|*
%AMROUNDEDRECTD26*
21,1,0.09449,0.10236,0,0,0.0*
21,1,0.00000,0.19685,0,0,0.0*
1,1,0.09449,0.00000,-0.05118*
1,1,0.09449,0.00000,-0.05118*
1,1,0.09449,0.00000,0.05118*
1,1,0.09449,0.00000,0.05118*
%
%ADD26ROUNDEDRECTD26*%
%ADD27C,0.05800*%
D16*
X257000Y123153D02*
D03*
Y116847D02*
D03*
X314000Y62347D02*
D03*
Y68653D02*
D03*
X311500Y123805D02*
D03*
Y117500D02*
D03*
X257000Y70653D02*
D03*
Y64347D02*
D03*
D18*
X413500Y98982D02*
D03*
Y104500D02*
D03*
X378000Y60500D02*
D03*
Y66018D02*
D03*
X375500Y118982D02*
D03*
Y124500D02*
D03*
D19*
X189689Y80500D02*
D03*
X213311D02*
D03*
D20*
X174728Y206500D02*
D03*
Y201500D02*
D03*
Y196500D02*
D03*
Y191500D02*
D03*
Y186500D02*
D03*
Y181500D02*
D03*
Y176500D02*
D03*
Y171500D02*
D03*
Y166500D02*
D03*
Y161500D02*
D03*
X203272Y206500D02*
D03*
Y201500D02*
D03*
Y196500D02*
D03*
Y191500D02*
D03*
Y186500D02*
D03*
Y181500D02*
D03*
Y176500D02*
D03*
Y171500D02*
D03*
Y166500D02*
D03*
Y161500D02*
D03*
D21*
X30000Y23500D02*
D03*
Y257500D02*
D03*
X454000D02*
D03*
Y23500D02*
D03*
D22*
X416000Y182500D02*
D03*
X406000D02*
D03*
X396000D02*
D03*
X386000D02*
D03*
X376000D02*
D03*
X366000D02*
D03*
X356000D02*
D03*
X346000D02*
D03*
X336000D02*
D03*
X326000D02*
D03*
X316000D02*
D03*
X72500Y236500D02*
D03*
Y246500D02*
D03*
X82500Y236500D02*
D03*
Y246500D02*
D03*
X92500Y236500D02*
D03*
Y246500D02*
D03*
X102500Y236500D02*
D03*
Y246500D02*
D03*
X112500Y236500D02*
D03*
D23*
X306000Y182500D02*
D03*
X112500Y246500D02*
D03*
D24*
X76657Y119559D02*
D03*
D25*
X96343D02*
D03*
X76657Y62472D02*
D03*
X86500D02*
D03*
X96343D02*
D03*
D26*
X64059Y92000D02*
D03*
X108941D02*
D03*
D27*
X190239Y179600D02*
D03*
X180800Y198700D02*
D03*
X184000Y172900D02*
D03*
X348000Y60500D02*
D03*
X416800Y136200D02*
D03*
X381300Y79500D02*
D03*
X167200Y142000D02*
D03*
X183000Y164700D02*
D03*
X184700Y192900D02*
D03*
X186100Y159500D02*
D03*
X183400Y183700D02*
D03*
X260500Y48500D02*
D03*
X385000Y171500D02*
D03*
M02*
