G04*
G04 #@! TF.GenerationSoftware,Altium Limited,Altium Designer,23.2.1 (34)*
G04*
G04 Layer_Color=16711935*
%FSLAX25Y25*%
%MOIN*%
G70*
G04*
G04 #@! TF.SameCoordinates,93AA6E6A-2443-478F-AA38-481D138D9A8A*
G04*
G04*
G04 #@! TF.FilePolarity,Negative*
G04*
G01*
G75*
%ADD50C,0.20800*%
%ADD51C,0.09068*%
%ADD52C,0.07296*%
%ADD53R,0.07296X0.07296*%
%ADD54C,0.06780*%
%ADD55R,0.07296X0.07296*%
%ADD56R,0.06706X0.06706*%
%ADD57C,0.06706*%
%ADD58R,0.06706X0.06706*%
%ADD59C,0.06800*%
%ADD60C,0.05800*%
D50*
X36500Y26500D02*
D03*
Y783500D02*
D03*
X592500Y26500D02*
D03*
Y783500D02*
D03*
D51*
X535500Y458421D02*
D03*
Y518500D02*
D03*
Y538342D02*
D03*
Y558185D02*
D03*
X505972D02*
D03*
Y538342D02*
D03*
Y518500D02*
D03*
Y458421D02*
D03*
D52*
X528000Y801500D02*
D03*
X529500Y682500D02*
D03*
X431000Y30000D02*
D03*
X147500Y803000D02*
D03*
D53*
X528000Y781500D02*
D03*
X529500Y662500D02*
D03*
D54*
X115000Y515421D02*
D03*
Y525657D02*
D03*
Y535500D02*
D03*
D55*
X411000Y30000D02*
D03*
X167500Y803000D02*
D03*
D56*
X163000Y359000D02*
D03*
X355000Y334000D02*
D03*
X355500Y199500D02*
D03*
X164000Y255000D02*
D03*
X394000Y295000D02*
D03*
X355000Y266000D02*
D03*
D57*
X173000Y359000D02*
D03*
X163000Y349000D02*
D03*
X173000D02*
D03*
X163000Y339000D02*
D03*
X173000D02*
D03*
X163000Y329000D02*
D03*
X173000D02*
D03*
X163000Y319000D02*
D03*
X173000D02*
D03*
X345000Y354000D02*
D03*
X355000D02*
D03*
X345000Y344000D02*
D03*
X355000D02*
D03*
X345000Y334000D02*
D03*
X238000Y352000D02*
D03*
X248000D02*
D03*
X355500Y209500D02*
D03*
Y219500D02*
D03*
Y229500D02*
D03*
Y239500D02*
D03*
X164000Y275000D02*
D03*
Y265000D02*
D03*
X394000Y305000D02*
D03*
Y315000D02*
D03*
Y325000D02*
D03*
X258500Y211500D02*
D03*
X355000Y286000D02*
D03*
Y276000D02*
D03*
D58*
X258000Y352000D02*
D03*
X248500Y211500D02*
D03*
D59*
X514500Y259500D02*
D03*
X469000Y441000D02*
D03*
X440000Y399500D02*
D03*
X385500Y403000D02*
D03*
X381000Y464500D02*
D03*
X350000Y545000D02*
D03*
X399000Y586500D02*
D03*
X435500Y721521D02*
D03*
X452500Y630500D02*
D03*
X383500Y623563D02*
D03*
X493500Y703500D02*
D03*
X443374Y666374D02*
D03*
X216500Y511500D02*
D03*
Y565500D02*
D03*
X334500Y655500D02*
D03*
X342500Y759000D02*
D03*
X460500Y578000D02*
D03*
X352000Y492500D02*
D03*
D60*
X508000Y381000D02*
D03*
X317500Y709000D02*
D03*
X70000Y295500D02*
D03*
X254000Y425500D02*
D03*
X283000Y220500D02*
D03*
X535500Y293500D02*
D03*
X330500Y265500D02*
D03*
X308500Y25000D02*
D03*
X339000Y61000D02*
D03*
X290000Y12000D02*
D03*
X283500Y58000D02*
D03*
X287500Y69500D02*
D03*
X276500Y72000D02*
D03*
X182311Y60689D02*
D03*
X105400Y318500D02*
D03*
X276400Y21300D02*
D03*
X177220Y61000D02*
D03*
X215000Y210500D02*
D03*
Y255000D02*
D03*
X135000D02*
D03*
X280000Y329000D02*
D03*
X173500Y295500D02*
D03*
X288000Y199000D02*
D03*
X306500Y258500D02*
D03*
X266000Y187500D02*
D03*
X288500Y348500D02*
D03*
X307000Y374500D02*
D03*
X274500Y323000D02*
D03*
X420500Y120000D02*
D03*
X445000Y161500D02*
D03*
X429000Y135500D02*
D03*
X454000Y140500D02*
D03*
X191808Y207808D02*
D03*
X206000Y287500D02*
D03*
X115500Y271000D02*
D03*
X180500D02*
D03*
X264000Y227500D02*
D03*
X459000Y183000D02*
D03*
M02*
