G04*
G04 #@! TF.GenerationSoftware,Altium Limited,Altium Designer,23.2.1 (34)*
G04*
G04 Layer_Physical_Order=1*
G04 Layer_Color=255*
%FSLAX25Y25*%
%MOIN*%
G70*
G04*
G04 #@! TF.SameCoordinates,93AA6E6A-2443-478F-AA38-481D138D9A8A*
G04*
G04*
G04 #@! TF.FilePolarity,Positive*
G04*
G01*
G75*
%ADD17C,0.01000*%
%ADD19R,0.03543X0.03150*%
%ADD20R,0.05339X0.04349*%
%ADD21R,0.04349X0.05339*%
%ADD22R,0.03583X0.04803*%
%ADD23R,0.11417X0.04331*%
%ADD24R,0.06693X0.05906*%
%ADD25R,0.05906X0.06693*%
%ADD26O,0.06693X0.01772*%
%ADD27O,0.01772X0.06693*%
%ADD28R,0.05136X0.05733*%
%ADD29R,0.04331X0.11417*%
G04:AMPARAMS|DCode=30|XSize=9.94mil|YSize=65.17mil|CornerRadius=4.97mil|HoleSize=0mil|Usage=FLASHONLY|Rotation=0.000|XOffset=0mil|YOffset=0mil|HoleType=Round|Shape=RoundedRectangle|*
%AMROUNDEDRECTD30*
21,1,0.00994,0.05523,0,0,0.0*
21,1,0.00000,0.06517,0,0,0.0*
1,1,0.00994,0.00000,-0.02761*
1,1,0.00994,0.00000,-0.02761*
1,1,0.00994,0.00000,0.02761*
1,1,0.00994,0.00000,0.02761*
%
%ADD30ROUNDEDRECTD30*%
G04:AMPARAMS|DCode=31|XSize=65.17mil|YSize=9.94mil|CornerRadius=4.97mil|HoleSize=0mil|Usage=FLASHONLY|Rotation=0.000|XOffset=0mil|YOffset=0mil|HoleType=Round|Shape=RoundedRectangle|*
%AMROUNDEDRECTD31*
21,1,0.06517,0.00000,0,0,0.0*
21,1,0.05523,0.00994,0,0,0.0*
1,1,0.00994,0.02761,0.00000*
1,1,0.00994,-0.02761,0.00000*
1,1,0.00994,-0.02761,0.00000*
1,1,0.00994,0.02761,0.00000*
%
%ADD31ROUNDEDRECTD31*%
%ADD32R,0.06517X0.00994*%
%ADD33R,0.04803X0.03583*%
%ADD34R,0.05733X0.05136*%
%ADD35R,0.22244X0.27165*%
%ADD36R,0.03937X0.11221*%
%ADD37R,0.16811X0.07008*%
%ADD61C,0.05000*%
%ADD62C,0.02500*%
%ADD63C,0.20000*%
%ADD64C,0.08268*%
%ADD65C,0.06496*%
%ADD66R,0.06496X0.06496*%
%ADD67C,0.05980*%
%ADD68R,0.06496X0.06496*%
%ADD69R,0.05906X0.05906*%
%ADD70C,0.05906*%
%ADD71R,0.05906X0.05906*%
%ADD72C,0.06000*%
%ADD73C,0.05000*%
D17*
X470000Y278900D02*
X527500D01*
X533000Y273400D01*
X320000Y382063D02*
X321000Y383063D01*
X320000Y369000D02*
Y382063D01*
X98305Y432700D02*
X98500D01*
X367000Y348200D02*
X397600Y317600D01*
X344500Y315000D02*
X394000D01*
X311858Y282358D02*
X344500Y315000D01*
X350500Y305000D02*
X394000D01*
X325890Y280390D02*
X350500Y305000D01*
X378200Y277900D02*
Y296000D01*
X382200Y300000D02*
X395600D01*
X378200Y296000D02*
X382200Y300000D01*
X241259Y438241D02*
X254000Y425500D01*
X241259Y438241D02*
Y457500D01*
X283000Y220500D02*
Y228695D01*
X265390Y246305D02*
X283000Y228695D01*
X265390Y246305D02*
Y257258D01*
X263421Y246079D02*
X272500Y237000D01*
Y194000D02*
Y237000D01*
X263421Y246079D02*
Y257258D01*
X267358Y247142D02*
X315000Y199500D01*
X355500D01*
X267358Y247142D02*
Y257258D01*
X528000Y301000D02*
Y314500D01*
Y301000D02*
X535500Y293500D01*
X323484Y272516D02*
X330500Y265500D01*
X274742Y272516D02*
X323484D01*
X91232Y632232D02*
X91268Y632197D01*
X92543Y715732D02*
X92579Y715697D01*
X409732Y448732D02*
X409768Y448697D01*
X325000Y18000D02*
Y20900D01*
X308500Y25000D02*
X318495D01*
X325000Y18495D01*
X299000Y18000D02*
X319482D01*
X239000Y78000D02*
X299000Y18000D01*
X348000Y12500D02*
Y31700D01*
X353800Y37500D01*
X338500Y3000D02*
X348000Y12500D01*
X342771Y14270D02*
Y15099D01*
X337000Y8500D02*
X342771Y14270D01*
X319982Y37887D02*
X342771Y15099D01*
X300982Y8500D02*
X337000D01*
X331914Y11500D02*
X332500Y12086D01*
X301000Y11500D02*
X331914D01*
X332500Y12086D02*
Y19500D01*
X287100Y25400D02*
X301000Y11500D01*
X314500Y86914D02*
X315086Y87500D01*
X314500Y37500D02*
X332500Y19500D01*
X315086Y87500D02*
X318982D01*
X314500Y37500D02*
Y86914D01*
X319982Y37887D02*
Y46000D01*
X182100Y3000D02*
X338500D01*
X325500Y49000D02*
Y49495D01*
X337005Y61000D01*
X339000D01*
X318982Y88969D02*
X325018Y95005D01*
X318982Y87500D02*
Y88969D01*
X325018Y95005D02*
Y95500D01*
X317826Y93330D02*
X319500Y95005D01*
X316000Y92000D02*
X317330Y93330D01*
X313000Y92000D02*
X316000D01*
X319500Y95005D02*
Y95500D01*
X317330Y93330D02*
X317826D01*
X319500Y95500D02*
X320500Y96500D01*
X311000Y34900D02*
X325000Y20900D01*
X311000Y34900D02*
Y90000D01*
X313000Y92000D01*
X300000Y54000D02*
Y91000D01*
X325518Y116518D01*
Y124500D01*
X156500Y28600D02*
X182100Y3000D01*
X286743Y9600D02*
X289143Y12000D01*
X290000D01*
X278900Y9600D02*
X286743D01*
X276500Y12000D02*
X278900Y9600D01*
X298588Y6107D02*
X300982Y8500D01*
X182339Y51200D02*
X227432Y6107D01*
X298588D01*
X250400Y25400D02*
X287100D01*
X179661Y78000D02*
X239000D01*
X283500Y56918D02*
Y58000D01*
X281259Y54677D02*
X283500Y56918D01*
X281259Y49000D02*
Y54677D01*
X277415Y50674D02*
Y59416D01*
X275741Y49000D02*
X277415Y50674D01*
Y59416D02*
X287500Y69500D01*
X181411Y60689D02*
X182311D01*
X281759Y77259D02*
Y87000D01*
X179780Y62320D02*
X181411Y60689D01*
X276500Y72000D02*
X281759Y77259D01*
X281259Y49000D02*
X295000D01*
X300000Y54000D01*
X174661Y73000D02*
X179661Y78000D01*
X184232Y69268D02*
X196500Y57000D01*
X182339Y69268D02*
X184232D01*
X189939Y57000D02*
X196500D01*
X156500Y28600D02*
Y51000D01*
X162500Y57000D02*
X189939D01*
X156500Y51000D02*
X162500Y57000D01*
X470000Y249200D02*
X492200D01*
X413500Y196800D02*
X421200D01*
X135000Y331000D02*
X148900Y344900D01*
X92195Y351108D02*
Y396000D01*
X91241Y349159D02*
Y350154D01*
X470000Y278900D02*
Y299000D01*
Y272811D02*
Y278900D01*
X294000Y354000D02*
X345000D01*
X345600D01*
X280800D02*
X294000D01*
X330600Y258400D02*
X334500Y254500D01*
X330600Y258400D02*
X358700D01*
X326500D02*
X330600D01*
X314353Y270547D02*
X326500Y258400D01*
X289104Y125000D02*
X320000D01*
X319982Y46000D02*
Y49000D01*
X189939Y57000D02*
X221539Y25400D01*
X250400D01*
X481000Y140995D02*
Y193700D01*
X476741Y187000D02*
Y192641D01*
X479500Y195400D01*
X510000D01*
X519900Y185500D01*
X526695D01*
X182339Y51200D02*
Y52732D01*
X353800Y37500D02*
X358500D01*
X276500Y12000D02*
Y16000D01*
X201610Y280390D02*
X242258D01*
X163000Y319000D02*
X201610Y280390D01*
X247673Y289742D02*
Y297100D01*
X230426Y314347D02*
X247673Y297100D01*
X169580Y314347D02*
X230426D01*
X166563Y317364D02*
X169580Y314347D01*
X166563Y317364D02*
Y342951D01*
X166200Y343314D02*
X166563Y342951D01*
X166200Y343314D02*
Y345800D01*
X163000Y349000D02*
X166200Y345800D01*
X168800Y323200D02*
X173000Y319000D01*
X168800Y323200D02*
Y347800D01*
X168000Y348600D02*
X168800Y347800D01*
X168000Y348600D02*
Y365200D01*
X137200Y396000D02*
X168000Y365200D01*
X98500Y396000D02*
X137200D01*
X96759Y354000D02*
X123300D01*
X131900Y362600D01*
X166600D01*
Y347400D02*
Y362600D01*
Y347400D02*
X167300Y346700D01*
Y344814D02*
Y346700D01*
Y344814D02*
X167700Y344414D01*
Y319247D02*
Y344414D01*
Y319247D02*
X171500Y315447D01*
X175547D01*
X176600Y316500D01*
Y345400D01*
X173000Y349000D02*
X176600Y345400D01*
X173000Y359000D02*
X209000D01*
X249642Y318358D01*
Y289742D02*
Y318358D01*
X253579Y289742D02*
Y350000D01*
X251579Y352000D02*
X253579Y350000D01*
X248000Y352000D02*
X251579D01*
X169400Y352600D02*
X173000Y349000D01*
X169400Y352600D02*
Y360500D01*
X171500Y362600D01*
X209100D01*
X251500Y320200D01*
Y297810D02*
Y320200D01*
Y297810D02*
X251610Y297700D01*
Y289742D02*
Y297700D01*
X95518Y318500D02*
X105400D01*
X481000Y193700D02*
X482259D01*
Y187000D02*
Y193700D01*
X276400Y21300D02*
X278400Y19300D01*
X282018D01*
Y16000D02*
Y19300D01*
X177220Y61000D02*
Y69268D01*
X179780Y62320D02*
Y69268D01*
X356000Y355000D02*
Y389195D01*
X355000Y354000D02*
X356000Y355000D01*
X321000Y395937D02*
X333663D01*
X334100Y395500D01*
X356000D01*
X174661Y69268D02*
Y73000D01*
Y81900D01*
X206518Y113757D01*
Y174500D01*
X275847Y93053D02*
Y125000D01*
Y93053D02*
X276241Y92659D01*
Y87000D02*
Y92659D01*
X481759Y105000D02*
X527500D01*
X533000Y110500D01*
Y185500D01*
X251610Y257258D02*
Y269257D01*
X252900Y270547D01*
X274742D01*
X257516Y330716D02*
X280800Y354000D01*
X338305Y174500D02*
X350000D01*
X366500Y191000D02*
Y245000D01*
X350000Y91000D02*
X411000Y30000D01*
X350000Y91000D02*
Y174500D01*
X357000Y254500D02*
X366500Y245000D01*
X351311Y173189D02*
X413500D01*
X350000Y174500D02*
X351311Y173189D01*
X350000Y174500D02*
X366500Y191000D01*
X334500Y254500D02*
X357000D01*
X274742Y270547D02*
X314353D01*
X358700Y258400D02*
X378200Y277900D01*
X395600Y300000D02*
X397600Y302000D01*
Y317600D01*
X351400Y348200D02*
X367000D01*
X345600Y354000D02*
X351400Y348200D01*
X257516Y289742D02*
Y330716D01*
X366805Y30000D02*
X411000D01*
X364805Y32000D02*
X366805Y30000D01*
X364805Y32000D02*
Y37500D01*
X320000Y124500D02*
Y125000D01*
X364805Y37500D02*
Y41495D01*
X363500Y42800D02*
X364805Y41495D01*
X323182Y42800D02*
X363500D01*
X319982Y46000D02*
X323182Y42800D01*
X394000Y325000D02*
X397300Y321700D01*
X447300D01*
X470000Y299000D01*
X533000Y242000D02*
Y273400D01*
X98305Y432700D02*
Y433000D01*
X98500Y396000D02*
Y432700D01*
X91241Y350154D02*
Y350600D01*
Y350154D02*
X92195Y351108D01*
X91241Y350600D02*
Y354000D01*
Y349159D02*
X95500Y344900D01*
X148900D01*
X163000Y359000D01*
X90000Y318500D02*
Y349359D01*
X91241Y350600D01*
X92000Y410000D02*
Y433000D01*
Y410000D02*
X92195Y409805D01*
Y396000D02*
Y409805D01*
X259484Y281342D02*
Y289742D01*
X249642Y271500D02*
X259484Y281342D01*
X249642Y257258D02*
Y271500D01*
X413500Y196800D02*
Y196811D01*
Y193268D02*
Y196800D01*
Y193268D02*
X436768Y170000D01*
Y105839D02*
Y170000D01*
X421200Y196800D02*
X470000Y245600D01*
Y249189D01*
X499400Y242000D02*
X526695D01*
X492200Y249200D02*
X499400Y242000D01*
X470000Y249189D02*
Y249200D01*
X394000Y219854D02*
Y295000D01*
Y219854D02*
X413500Y200354D01*
Y196811D02*
Y200354D01*
X206518Y174500D02*
Y174995D01*
X215000Y183477D01*
Y210500D01*
Y255000D02*
X229000D01*
X243000Y241000D01*
X170500D02*
Y248500D01*
X251000Y174500D02*
X276500D01*
X215000Y210500D02*
X251000Y174500D01*
X164000Y255000D02*
X170500Y248500D01*
X249642Y247642D02*
Y257258D01*
X243000Y241000D02*
X249642Y247642D01*
X170500Y241000D02*
X243000D01*
X135000Y255000D02*
Y331000D01*
X259484Y289742D02*
Y308484D01*
X259516D01*
Y315000D01*
X273516Y329000D01*
X280000D01*
X238000Y352000D02*
Y359500D01*
X288500D01*
X294000Y354000D01*
X146500Y257500D02*
X164000Y275000D01*
X146500Y237000D02*
Y257500D01*
Y237000D02*
X147000Y236500D01*
X251500D01*
X251610Y236610D01*
Y257258D01*
X164000Y275000D02*
Y286000D01*
X173500Y295500D01*
X282153Y125000D02*
X289104D01*
X338305Y174202D01*
Y174500D01*
X413500Y142500D02*
Y173189D01*
X370414Y99414D02*
X413500Y142500D01*
X370414Y98586D02*
Y99414D01*
Y98586D02*
X371000Y98000D01*
X402701D01*
X402862Y98161D01*
X420232D01*
X481759Y68046D02*
X482305Y67500D01*
X481759Y68046D02*
Y105000D01*
X433500Y67500D02*
X476000D01*
X427500Y73500D02*
X433500Y67500D01*
X427500Y73500D02*
Y100135D01*
X426914Y100720D02*
X427500Y100135D01*
X420232Y100720D02*
X426914D01*
X476000Y29759D02*
Y67500D01*
X475241Y29000D02*
X476000Y29759D01*
X282805Y174500D02*
X332000D01*
X282805D02*
Y174798D01*
X288000Y179993D01*
Y199000D01*
X296421Y268579D02*
X306500Y258500D01*
X274742Y268579D02*
X296421D01*
X275847Y125000D02*
Y125298D01*
X264308Y136838D02*
X275847Y125298D01*
X264308Y136838D02*
Y157808D01*
X263400Y158716D02*
X264308Y157808D01*
X266000Y187500D02*
X272500Y194000D01*
X263421Y289742D02*
Y302421D01*
X298586Y337586D01*
Y338414D01*
X288500Y348500D02*
X298586Y338414D01*
X307000Y374500D02*
Y392000D01*
X311000Y396000D01*
X320937D01*
X321000Y395937D01*
X261453Y289742D02*
Y309953D01*
X274500Y323000D01*
X290000Y311000D02*
X290500Y310500D01*
X298000Y318000D01*
X362500D01*
X363000Y318500D01*
Y344000D01*
X355000D02*
X363000D01*
X420232Y105839D02*
X420500Y106106D01*
Y120000D01*
X445000Y161500D02*
X460495D01*
X481000Y140995D01*
Y140500D02*
Y140995D01*
X393220Y103280D02*
X420232D01*
X392414Y104086D02*
X393220Y103280D01*
X392414Y104086D02*
Y104914D01*
X423000Y135500D01*
X429000D01*
X454000Y140500D02*
X475482D01*
Y105759D02*
Y140500D01*
Y105759D02*
X476241Y105000D01*
X274742Y274484D02*
X346516D01*
X355000Y266000D01*
X274742Y276453D02*
X354547D01*
X355000Y276000D01*
X274742Y278421D02*
X347421D01*
X355000Y286000D01*
X248500Y211500D02*
Y227500D01*
X253579Y232579D01*
Y257258D01*
X255547Y214453D02*
X258500Y211500D01*
X255547Y214453D02*
Y257258D01*
X274742Y280390D02*
X325890D01*
X274742Y282358D02*
X311858D01*
X164000Y265000D02*
X164358Y264642D01*
X242258D01*
X191808Y207808D02*
X201000Y198616D01*
Y174500D02*
Y198616D01*
X269327Y257258D02*
X269500Y257085D01*
Y250000D02*
Y257085D01*
Y250000D02*
X276000D01*
X316500Y209500D01*
X355500D01*
X274742Y262673D02*
X280827D01*
X324000Y219500D01*
X355500D01*
X274742Y264642D02*
X285358D01*
X320500Y229500D01*
X355500D01*
X274742Y266610D02*
X289390D01*
X316500Y239500D01*
X355500D01*
X255547Y289742D02*
Y349547D01*
X258000Y352000D01*
X267358Y289742D02*
Y295858D01*
X293500Y322000D01*
X355500D01*
Y333500D01*
X355000Y334000D02*
X355500Y333500D01*
X265390Y289742D02*
Y298610D01*
X310780Y344000D01*
X345000D01*
X224000Y289500D02*
X231000D01*
X236173Y284327D01*
X242258D01*
X206000Y287500D02*
X211142Y282358D01*
X242258D01*
X431000Y30000D02*
X458000D01*
X479586Y8414D01*
X480414D01*
X481000Y9000D01*
Y28759D01*
X480759Y29000D02*
X481000Y28759D01*
X95018Y271000D02*
X115500D01*
X180500D02*
X184890Y266610D01*
X242258D01*
X261453Y230047D02*
Y257258D01*
Y230047D02*
X264000Y227500D01*
X459000Y183000D02*
X463000Y187000D01*
X476741D01*
X486697Y277732D02*
X486732Y277768D01*
X396768Y168232D02*
X396803Y168268D01*
D19*
X526500Y357480D02*
D03*
Y350000D02*
D03*
X534374Y353740D02*
D03*
X370937Y611000D02*
D03*
X363063Y607260D02*
D03*
Y614740D02*
D03*
X443374Y702760D02*
D03*
X435500Y699020D02*
D03*
Y706500D02*
D03*
X439437Y613000D02*
D03*
X431563Y609260D02*
D03*
Y616740D02*
D03*
D20*
X469500Y355518D02*
D03*
Y350000D02*
D03*
X367500Y786518D02*
D03*
Y781000D02*
D03*
Y674482D02*
D03*
Y680000D02*
D03*
Y727759D02*
D03*
Y722241D02*
D03*
D21*
X533518Y314500D02*
D03*
X528000D02*
D03*
X241259Y457500D02*
D03*
X235741D02*
D03*
X319000Y458500D02*
D03*
X313482D02*
D03*
X319500Y95500D02*
D03*
X325018D02*
D03*
X325518Y124500D02*
D03*
X320000D02*
D03*
X281759Y87000D02*
D03*
X276241D02*
D03*
X281259Y49000D02*
D03*
X275741D02*
D03*
X276500Y16000D02*
D03*
X282018D02*
D03*
X325500Y49000D02*
D03*
X319982D02*
D03*
X476241Y105000D02*
D03*
X481759D02*
D03*
X482259Y187000D02*
D03*
X476741D02*
D03*
X480759Y29000D02*
D03*
X475241D02*
D03*
X319482Y18000D02*
D03*
X325000D02*
D03*
X475482Y140500D02*
D03*
X481000D02*
D03*
X91241Y354000D02*
D03*
X96759D02*
D03*
X90000Y318500D02*
D03*
X95518D02*
D03*
X95018Y271000D02*
D03*
X89500D02*
D03*
X206518Y174500D02*
D03*
X201000D02*
D03*
D22*
X458626Y397500D02*
D03*
X471500D02*
D03*
X516063Y410500D02*
D03*
X528937D02*
D03*
D23*
X119811Y615500D02*
D03*
X96189D02*
D03*
X121122Y699000D02*
D03*
X97500D02*
D03*
X438311Y432000D02*
D03*
X414689D02*
D03*
D24*
X286000Y515000D02*
D03*
X266000D02*
D03*
Y549500D02*
D03*
X286000D02*
D03*
D25*
X442500Y545500D02*
D03*
Y525500D02*
D03*
X408000D02*
D03*
Y545500D02*
D03*
D26*
X436768Y98161D02*
D03*
Y100720D02*
D03*
Y103280D02*
D03*
Y105839D02*
D03*
X420232Y98161D02*
D03*
Y100720D02*
D03*
Y103280D02*
D03*
Y105839D02*
D03*
D27*
X182339Y69268D02*
D03*
X179780D02*
D03*
X177220D02*
D03*
X174661D02*
D03*
X182339Y52732D02*
D03*
X179780D02*
D03*
X177220D02*
D03*
X174661D02*
D03*
D28*
X358500Y37500D02*
D03*
X364805D02*
D03*
X275847Y125000D02*
D03*
X282153D02*
D03*
X476000Y67500D02*
D03*
X482305D02*
D03*
X526695Y185500D02*
D03*
X533000D02*
D03*
X526695Y242000D02*
D03*
X533000D02*
D03*
X282805Y174500D02*
D03*
X276500D02*
D03*
X332000D02*
D03*
X338305D02*
D03*
X92000Y433000D02*
D03*
X98305D02*
D03*
X92195Y396000D02*
D03*
X98500D02*
D03*
D29*
X470000Y249189D02*
D03*
Y272811D02*
D03*
X413500Y196811D02*
D03*
Y173189D02*
D03*
D30*
X247673Y289742D02*
D03*
X249642D02*
D03*
X251610D02*
D03*
X253579D02*
D03*
X255547D02*
D03*
X257516D02*
D03*
X259484D02*
D03*
X261453D02*
D03*
X263421D02*
D03*
X265390D02*
D03*
X267358D02*
D03*
X269327D02*
D03*
Y257258D02*
D03*
X267358D02*
D03*
X265390D02*
D03*
X263421D02*
D03*
X261453D02*
D03*
X259484D02*
D03*
X257516D02*
D03*
X255547D02*
D03*
X253579D02*
D03*
X251610D02*
D03*
X249642D02*
D03*
X247673D02*
D03*
D31*
X274742Y284327D02*
D03*
Y282358D02*
D03*
Y280390D02*
D03*
Y278421D02*
D03*
Y276453D02*
D03*
Y274484D02*
D03*
Y272516D02*
D03*
Y270547D02*
D03*
Y268579D02*
D03*
Y266610D02*
D03*
Y264642D02*
D03*
Y262673D02*
D03*
X242258D02*
D03*
Y264642D02*
D03*
Y266610D02*
D03*
Y268579D02*
D03*
Y270547D02*
D03*
Y272516D02*
D03*
Y274484D02*
D03*
Y276453D02*
D03*
Y278421D02*
D03*
Y280390D02*
D03*
Y282358D02*
D03*
D32*
Y284327D02*
D03*
D33*
X321000Y383063D02*
D03*
Y395937D02*
D03*
D34*
X356000Y395500D02*
D03*
Y389195D02*
D03*
D35*
X281500Y628500D02*
D03*
D36*
X272524Y655272D02*
D03*
X290476D02*
D03*
D37*
X280386Y720500D02*
D03*
Y730500D02*
D03*
X238614D02*
D03*
Y720500D02*
D03*
D61*
X514500Y259500D02*
X526695Y247305D01*
Y242000D02*
Y247305D01*
X516063Y389063D02*
Y410500D01*
X508000Y381000D02*
X516063Y389063D01*
X469500Y355674D02*
Y375587D01*
X559000Y378366D02*
Y473571D01*
X492000Y476500D02*
X556071D01*
X534374Y353740D02*
X559000Y378366D01*
X556071Y476500D02*
X559000Y473571D01*
X486000Y470500D02*
X492000Y476500D01*
X486000Y372174D02*
Y470500D01*
X469500Y355674D02*
X486000Y372174D01*
X469500Y355518D02*
Y355674D01*
X441185Y432000D02*
X450185Y441000D01*
X469000D01*
X438311Y432000D02*
X441185D01*
X349000Y545500D02*
X408000D01*
X312071Y586571D02*
X348000Y622500D01*
X312071Y582429D02*
Y586571D01*
Y582429D02*
X349000Y545500D01*
X442000Y397500D02*
X458626D01*
X440000Y399500D02*
X442000Y397500D01*
X313482Y426429D02*
X316411Y423500D01*
X313482Y426429D02*
Y458500D01*
X316411Y423500D02*
X365000D01*
X385500Y403000D01*
X375000Y458500D02*
X381000Y464500D01*
X319000Y458500D02*
X375000D01*
X241259Y457500D02*
X312326D01*
X313326Y458500D01*
X313482D01*
X383823Y586500D02*
X398500D01*
X363063Y607260D02*
X383823Y586500D01*
X452500Y626063D02*
Y630500D01*
X439437Y613000D02*
X452500Y626063D01*
X285287Y730500D02*
X364915D01*
X390500Y806500D02*
X493500Y703500D01*
X352500Y803571D02*
X355429Y806500D01*
X390500D01*
X352500Y797713D02*
Y803571D01*
X280386Y730500D02*
X285287D01*
X352500Y797713D01*
X216500Y476741D02*
Y511500D01*
X235585Y457500D02*
X235741D01*
X235416Y457670D02*
X235585Y457500D01*
X235416Y457670D02*
Y457826D01*
X216500Y476741D02*
X235416Y457826D01*
X216500Y565500D02*
X249606D01*
X265606Y549500D01*
X266000D01*
X348000Y622500D02*
Y628500D01*
Y642000D01*
X334500Y655500D02*
X348000Y642000D01*
X345656Y759000D02*
X367500Y780844D01*
X342500Y759000D02*
X345656D01*
X367500Y780844D02*
Y781000D01*
X370829Y786193D02*
X435500Y721521D01*
X367500Y786362D02*
Y786518D01*
Y786362D02*
X367670Y786193D01*
X370829D01*
X367670Y721915D02*
X367826D01*
X367500Y722085D02*
Y722241D01*
Y722085D02*
X367670Y721915D01*
X367826D02*
X390721Y699020D01*
X435500D01*
X367500Y727759D02*
Y727915D01*
X364915Y730500D02*
X367500Y727915D01*
X275484Y720500D02*
X280386D01*
X272524Y655272D02*
Y717539D01*
X275484Y720500D01*
X367330Y680326D02*
X367500Y680156D01*
X367175Y680326D02*
X367330D01*
X323126Y690500D02*
X357000D01*
X367500Y680000D02*
Y680156D01*
X357000Y690500D02*
X367175Y680326D01*
X290476Y657850D02*
X323126Y690500D01*
X290476Y655272D02*
Y657850D01*
X348000Y628500D02*
X361760Y614740D01*
X363063D01*
X281500Y628500D02*
X348000D01*
X370937Y611000D02*
X383500Y623563D01*
Y642000D01*
X367500Y658000D02*
X383500Y642000D01*
X367500Y658000D02*
Y674482D01*
X431563Y616740D02*
Y654563D01*
X443374Y666374D01*
Y702760D01*
X444979Y721521D02*
X496429Y670071D01*
Y665929D02*
Y670071D01*
X469500Y597429D02*
Y639000D01*
X496429Y665929D01*
X441500Y594500D02*
X466571D01*
X469500Y597429D01*
X438634Y591634D02*
X441500Y594500D01*
X431563Y594563D02*
Y609260D01*
Y594563D02*
X434492Y591634D01*
X438634D01*
X485000Y638000D02*
X529500Y682500D01*
X485000Y554929D02*
Y638000D01*
Y554929D02*
X492981Y546948D01*
X435500Y721521D02*
X444979D01*
X435500Y706500D02*
Y721521D01*
X408000Y481839D02*
X414689Y475150D01*
Y432000D02*
Y475150D01*
X408000Y481839D02*
Y525500D01*
X442500Y545894D02*
X460500Y563894D01*
X442500Y545500D02*
Y545894D01*
X460500Y563894D02*
Y578000D01*
X266394Y515000D02*
X288894Y492500D01*
X352000D01*
X266000Y515000D02*
X266394D01*
X425000Y535000D02*
X434500Y525500D01*
X442500D01*
X389000Y535000D02*
X425000D01*
X369000Y515000D02*
X389000Y535000D01*
X286000Y515000D02*
X369000D01*
X147000Y517929D02*
X160071Y531000D01*
X280500D02*
X286000Y536500D01*
X160071Y531000D02*
X280500D01*
X144071Y515000D02*
X147000Y517929D01*
X286000Y536500D02*
Y549500D01*
X129458Y515421D02*
X129879Y515000D01*
X147000Y517929D02*
Y673122D01*
X115000Y515421D02*
X129458D01*
X129879Y515000D02*
X144071D01*
X123996Y699000D02*
X124331Y698665D01*
Y695791D02*
Y698665D01*
X121122Y699000D02*
X123996D01*
X124331Y695791D02*
X147000Y673122D01*
X115000Y613563D02*
X116937Y615500D01*
X119811D01*
X115000Y535500D02*
Y613563D01*
X100461Y525657D02*
X115000D01*
X96189Y529929D02*
X100461Y525657D01*
X96189Y529929D02*
Y615500D01*
X238000Y731114D02*
X238614Y730500D01*
X238000Y731114D02*
Y775000D01*
X190000Y823000D02*
X238000Y775000D01*
X156500Y823000D02*
X190000D01*
X147500Y803000D02*
Y814000D01*
X156500Y823000D01*
X194000Y723429D02*
Y776500D01*
X196929Y720500D02*
X238614D01*
X194000Y723429D02*
X196929Y720500D01*
X167500Y803000D02*
X194000Y776500D01*
X97165Y615500D02*
X97500Y615835D01*
X96189Y615500D02*
X97165D01*
X97500Y615835D02*
Y699000D01*
X497367Y546948D02*
X505972Y538342D01*
X492981Y546948D02*
X497367D01*
X493130Y525500D02*
X505972Y538342D01*
X442500Y525500D02*
X493130D01*
X415000Y391000D02*
Y431689D01*
X414689Y432000D02*
X415000Y431689D01*
X394000Y370000D02*
X415000Y391000D01*
X394000Y325000D02*
Y370000D01*
X444500Y362000D02*
X458087Y375587D01*
X469500D01*
X444500Y353000D02*
Y362000D01*
Y353000D02*
X478000Y319500D01*
Y307000D02*
Y319500D01*
X470000Y299000D02*
X478000Y307000D01*
X469500Y350000D02*
X526500D01*
X471500Y377587D02*
Y397500D01*
X469500Y375587D02*
X471500Y377587D01*
X526500Y350000D02*
X533518Y342982D01*
Y314500D02*
Y342982D01*
X528937Y359917D02*
Y410500D01*
X526500Y357480D02*
X528937Y359917D01*
X505972Y420591D02*
X516063Y410500D01*
X505972Y420591D02*
Y458421D01*
X535500Y417063D02*
Y458421D01*
X528937Y410500D02*
X535500Y417063D01*
X506857Y518500D02*
X514321Y525964D01*
X516964D01*
X520500Y529500D01*
X505972Y518500D02*
X506857D01*
X520500Y529500D02*
Y543185D01*
X535500Y558185D01*
X548571Y781500D02*
X551500Y778571D01*
X528000Y781500D02*
X548571D01*
X535500Y558185D02*
X551500Y574185D01*
Y778571D01*
X535500Y518500D02*
X566071D01*
X569000Y521429D01*
Y798571D01*
X566071Y801500D02*
X569000Y798571D01*
X528000Y801500D02*
X566071D01*
D62*
X330741Y722241D02*
X367500D01*
X317500Y709000D02*
X330741Y722241D01*
X70000Y290995D02*
Y295500D01*
X89500Y271000D02*
Y271495D01*
X70000Y290995D02*
X89500Y271495D01*
X84500Y488000D02*
Y495157D01*
X115000Y525657D01*
X84500Y488000D02*
X98305Y474195D01*
Y433000D02*
Y474195D01*
D63*
X36500Y26500D02*
D03*
Y783500D02*
D03*
X592500Y26500D02*
D03*
Y783500D02*
D03*
D64*
X535500Y458421D02*
D03*
Y518500D02*
D03*
Y538342D02*
D03*
Y558185D02*
D03*
X505972D02*
D03*
Y538342D02*
D03*
Y518500D02*
D03*
Y458421D02*
D03*
D65*
X528000Y801500D02*
D03*
X529500Y682500D02*
D03*
X431000Y30000D02*
D03*
X147500Y803000D02*
D03*
D66*
X528000Y781500D02*
D03*
X529500Y662500D02*
D03*
D67*
X115000Y515421D02*
D03*
Y525657D02*
D03*
Y535500D02*
D03*
D68*
X411000Y30000D02*
D03*
X167500Y803000D02*
D03*
D69*
X163000Y359000D02*
D03*
X355000Y334000D02*
D03*
X355500Y199500D02*
D03*
X164000Y255000D02*
D03*
X394000Y295000D02*
D03*
X355000Y266000D02*
D03*
D70*
X173000Y359000D02*
D03*
X163000Y349000D02*
D03*
X173000D02*
D03*
X163000Y339000D02*
D03*
X173000D02*
D03*
X163000Y329000D02*
D03*
X173000D02*
D03*
X163000Y319000D02*
D03*
X173000D02*
D03*
X345000Y354000D02*
D03*
X355000D02*
D03*
X345000Y344000D02*
D03*
X355000D02*
D03*
X345000Y334000D02*
D03*
X238000Y352000D02*
D03*
X248000D02*
D03*
X355500Y209500D02*
D03*
Y219500D02*
D03*
Y229500D02*
D03*
Y239500D02*
D03*
X164000Y275000D02*
D03*
Y265000D02*
D03*
X394000Y305000D02*
D03*
Y315000D02*
D03*
Y325000D02*
D03*
X258500Y211500D02*
D03*
X355000Y286000D02*
D03*
Y276000D02*
D03*
D71*
X258000Y352000D02*
D03*
X248500Y211500D02*
D03*
D72*
X514500Y259500D02*
D03*
X469000Y441000D02*
D03*
X440000Y399500D02*
D03*
X385500Y403000D02*
D03*
X381000Y464500D02*
D03*
X350000Y545000D02*
D03*
X399000Y586500D02*
D03*
X435500Y721521D02*
D03*
X452500Y630500D02*
D03*
X383500Y623563D02*
D03*
X493500Y703500D02*
D03*
X443374Y666374D02*
D03*
X216500Y511500D02*
D03*
Y565500D02*
D03*
X334500Y655500D02*
D03*
X342500Y759000D02*
D03*
X460500Y578000D02*
D03*
X352000Y492500D02*
D03*
D73*
X508000Y381000D02*
D03*
X317500Y709000D02*
D03*
X70000Y295500D02*
D03*
X254000Y425500D02*
D03*
X283000Y220500D02*
D03*
X535500Y293500D02*
D03*
X330500Y265500D02*
D03*
X308500Y25000D02*
D03*
X339000Y61000D02*
D03*
X290000Y12000D02*
D03*
X283500Y58000D02*
D03*
X287500Y69500D02*
D03*
X276500Y72000D02*
D03*
X182311Y60689D02*
D03*
X105400Y318500D02*
D03*
X276400Y21300D02*
D03*
X177220Y61000D02*
D03*
X215000Y210500D02*
D03*
Y255000D02*
D03*
X135000D02*
D03*
X280000Y329000D02*
D03*
X173500Y295500D02*
D03*
X288000Y199000D02*
D03*
X306500Y258500D02*
D03*
X266000Y187500D02*
D03*
X288500Y348500D02*
D03*
X307000Y374500D02*
D03*
X274500Y323000D02*
D03*
X420500Y120000D02*
D03*
X445000Y161500D02*
D03*
X429000Y135500D02*
D03*
X454000Y140500D02*
D03*
X191808Y207808D02*
D03*
X206000Y287500D02*
D03*
X115500Y271000D02*
D03*
X180500D02*
D03*
X264000Y227500D02*
D03*
X459000Y183000D02*
D03*
M02*
