G04*
G04 #@! TF.GenerationSoftware,Altium Limited,Altium Designer,23.2.1 (34)*
G04*
G04 Layer_Color=65535*
%FSLAX25Y25*%
%MOIN*%
G70*
G04*
G04 #@! TF.SameCoordinates,93AA6E6A-2443-478F-AA38-481D138D9A8A*
G04*
G04*
G04 #@! TF.FilePolarity,Positive*
G04*
G01*
G75*
%ADD10C,0.00984*%
%ADD11C,0.01575*%
%ADD12C,0.01181*%
%ADD13C,0.01968*%
%ADD14C,0.00787*%
%ADD15C,0.00500*%
%ADD16C,0.00394*%
%ADD17C,0.01000*%
%ADD18C,0.00800*%
D10*
X526992Y361221D02*
G03*
X526992Y361221I-492J0D01*
G01*
X459118Y402067D02*
G03*
X459118Y402067I-492J0D01*
G01*
X516555Y415067D02*
G03*
X516555Y415067I-492J0D01*
G01*
X420724Y108890D02*
G03*
X420724Y108890I-492J0D01*
G01*
X172102Y52732D02*
G03*
X172102Y52732I-492J0D01*
G01*
X242750Y287122D02*
G03*
X242750Y287122I-492J0D01*
G01*
X316925Y383063D02*
G03*
X316925Y383063I-492J0D01*
G01*
X363555Y618480D02*
G03*
X363555Y618480I-492J0D01*
G01*
X295102Y655272D02*
G03*
X295102Y655272I-492J0D01*
G01*
X435992Y710240D02*
G03*
X435992Y710240I-492J0D01*
G01*
X432055Y620480D02*
G03*
X432055Y620480I-492J0D01*
G01*
D11*
X537948Y444457D02*
G03*
X537948Y444457I-495J0D01*
G01*
D12*
X115000Y501642D02*
G03*
X115000Y501248I0J-197D01*
G01*
D02*
G03*
X115000Y501642I0J197D01*
G01*
D13*
X252004Y280980D02*
G03*
X252004Y280980I-984J0D01*
G01*
D14*
X292965Y719594D02*
G03*
X292965Y718807I0J-394D01*
G01*
D02*
G03*
X292965Y719594I0J394D01*
G01*
X529787Y359488D02*
X532996D01*
Y356890D02*
Y359488D01*
X529787Y347992D02*
X532996D01*
Y350591D01*
X495736Y449169D02*
Y563342D01*
X545736D01*
Y449169D02*
Y563342D01*
X495736Y449169D02*
X545736D01*
X465071Y347826D02*
Y357692D01*
X473929Y347826D02*
Y357692D01*
X525826Y318929D02*
X535692D01*
X525826Y310071D02*
X535692D01*
X233567Y461929D02*
X243433D01*
X233567Y453071D02*
X243433D01*
X311308Y462929D02*
X321174D01*
X311308Y454071D02*
X321174D01*
X461992Y394252D02*
Y400748D01*
Y394252D02*
X468134D01*
Y400748D01*
X461992D02*
X468134D01*
X519429Y407252D02*
Y413748D01*
Y407252D02*
X525571D01*
Y413748D01*
X519429D02*
X525571D01*
X317326Y91071D02*
X327192D01*
X317326Y99929D02*
X327192D01*
X317826Y128929D02*
X327692D01*
X317826Y120071D02*
X327692D01*
X274067Y91429D02*
X283933D01*
X274067Y82571D02*
X283933D01*
X273567Y53429D02*
X283433D01*
X273567Y44571D02*
X283433D01*
X274326Y11571D02*
X284192D01*
X274326Y20429D02*
X284192D01*
X317808Y53429D02*
X327674D01*
X317808Y44571D02*
X327674D01*
X474067Y100571D02*
X483933D01*
X474067Y109429D02*
X483933D01*
X474567Y191429D02*
X484433D01*
X474567Y182571D02*
X484433D01*
X473067Y33429D02*
X482933D01*
X473067Y24571D02*
X482933D01*
X317308Y13571D02*
X327174D01*
X317308Y22429D02*
X327174D01*
X473308Y136071D02*
X483174D01*
X473308Y144929D02*
X483174D01*
X425154Y95898D02*
X431846D01*
X425154Y108102D02*
X431846D01*
Y95898D02*
Y108102D01*
X425154Y95898D02*
Y108102D01*
X184602Y57654D02*
Y64346D01*
X172398Y57654D02*
Y64346D01*
X184602D01*
X172398Y57654D02*
X184602D01*
X355932Y33059D02*
X367373D01*
X355932Y41941D02*
X367373D01*
X273279Y120559D02*
X284721D01*
X273279Y129441D02*
X284721D01*
X473432Y63059D02*
X484873D01*
X473432Y71941D02*
X484873D01*
X524127Y181059D02*
X535568D01*
X524127Y189941D02*
X535568D01*
X524127Y237559D02*
X535568D01*
X524127Y246441D02*
X535568D01*
X247673Y262673D02*
Y284327D01*
Y262673D02*
X269327D01*
Y284327D01*
X247673D02*
X269327D01*
X89067Y349571D02*
X98933D01*
X89067Y358429D02*
X98933D01*
X87826Y314071D02*
X97692D01*
X87826Y322929D02*
X97692D01*
X87326Y275429D02*
X97192D01*
X87326Y266571D02*
X97192D01*
X198826Y178929D02*
X208692D01*
X198826Y170071D02*
X208692D01*
X273932Y178941D02*
X285373D01*
X273932Y170059D02*
X285373D01*
X158000Y314000D02*
X178000D01*
X158000Y364000D02*
X178000D01*
Y314000D02*
Y364000D01*
X158000Y314000D02*
Y364000D01*
X360000Y339833D02*
Y359000D01*
Y329000D02*
Y359000D01*
X340000Y329000D02*
Y359000D01*
Y329000D02*
X360000D01*
X340000Y359000D02*
X360000D01*
X263000Y347000D02*
Y357000D01*
X233000Y347000D02*
X263000D01*
X233000D02*
Y357000D01*
X263000D01*
X350500Y244500D02*
X360500D01*
Y194500D02*
Y244500D01*
X350500Y194500D02*
Y244500D01*
Y194500D02*
X360500D01*
X159000Y250000D02*
X169000D01*
X159000D02*
Y280000D01*
X169000D01*
Y250000D02*
Y280000D01*
X389000Y330000D02*
X399000D01*
Y290000D02*
Y330000D01*
X389000Y290000D02*
Y330000D01*
Y290000D02*
X399000D01*
X243500Y216500D02*
X263500D01*
X243500Y206500D02*
Y216500D01*
Y206500D02*
X263500D01*
Y216500D01*
X350000Y261000D02*
X360000D01*
X350000D02*
Y291000D01*
X360000D01*
Y261000D02*
Y291000D01*
X317752Y386429D02*
X324248D01*
Y392571D01*
X317752D02*
X324248D01*
X317752Y386429D02*
Y392571D01*
X351559Y386627D02*
Y398068D01*
X360441Y386627D02*
Y398068D01*
X329432Y170059D02*
X340873D01*
X329432Y178941D02*
X340873D01*
X89432Y428559D02*
X100873D01*
X89432Y437441D02*
X100873D01*
X89627Y391559D02*
X101068D01*
X89627Y400441D02*
X101068D01*
X369559Y605252D02*
Y607850D01*
X366350Y605252D02*
X369559D01*
Y614150D02*
Y616748D01*
X366350D02*
X369559D01*
X363071Y778826D02*
Y788692D01*
X371929Y778826D02*
Y788692D01*
Y672308D02*
Y682174D01*
X363071Y672308D02*
Y682174D01*
X268311Y643657D02*
Y646020D01*
X294689D01*
Y643657D02*
Y646020D01*
X441996Y697012D02*
Y699610D01*
X438787Y697012D02*
X441996D01*
Y705909D02*
Y708508D01*
X438787D02*
X441996D01*
X438059Y607252D02*
Y609850D01*
X434850Y607252D02*
X438059D01*
Y616150D02*
Y618748D01*
X434850D02*
X438059D01*
X363071Y720067D02*
Y729933D01*
X371929Y720067D02*
Y729933D01*
D15*
X540205Y771500D02*
Y811500D01*
X511858Y771500D02*
X540205D01*
X544142D01*
Y811500D01*
X540205D02*
X544142D01*
X511858D02*
X540205D01*
X511858Y771500D02*
Y811500D01*
X541705Y652500D02*
Y692500D01*
X513358Y652500D02*
X541705D01*
X545642D01*
Y692500D01*
X541705D02*
X545642D01*
X513358D02*
X541705D01*
X513358Y652500D02*
Y692500D01*
X401000Y17795D02*
X441000D01*
X401000D02*
Y46142D01*
Y13858D02*
Y17795D01*
Y13858D02*
X441000D01*
Y17795D01*
Y46142D01*
X401000D02*
X441000D01*
X137500Y786858D02*
X177500D01*
X137500D02*
Y815205D01*
Y819142D01*
X177500D01*
Y815205D02*
Y819142D01*
Y786858D02*
Y815205D01*
X137500D02*
X177500D01*
D16*
X92953Y504201D02*
Y547114D01*
X129567D01*
Y504201D02*
Y547114D01*
X92953Y504201D02*
X129567D01*
X237098Y713098D02*
X281902D01*
X237098Y737902D02*
X279500D01*
D17*
X116768Y632232D02*
X124732Y624268D01*
Y615500D02*
Y624268D01*
Y606768D02*
Y615500D01*
X116732Y598768D02*
X124732Y606768D01*
X91268Y598768D02*
X116732D01*
X91268D02*
Y632197D01*
X91232Y632232D02*
X116768D01*
X118079Y715732D02*
X126043Y707768D01*
Y699000D02*
Y707768D01*
Y690268D02*
Y699000D01*
X118043Y682268D02*
X126043Y690268D01*
X92579Y682268D02*
X118043D01*
X92579D02*
Y715697D01*
X92543Y715732D02*
X118079D01*
X435268Y448732D02*
X443232Y440768D01*
Y432000D02*
Y440768D01*
Y423268D02*
Y432000D01*
X435232Y415268D02*
X443232Y423268D01*
X409768Y415268D02*
X435232D01*
X409768D02*
Y448697D01*
X409732Y448732D02*
X435268D01*
X267803Y515071D02*
X276000D01*
X256993D02*
X263221D01*
X256993D02*
Y534077D01*
X263221Y515071D02*
X267803D01*
X276000D02*
X277969D01*
X256993Y548993D02*
X257327Y549327D01*
X269504D01*
X295007Y534077D02*
Y549327D01*
X282496D02*
X295007D01*
X256993Y534077D02*
Y548993D01*
X295007Y532000D02*
Y534077D01*
Y515071D02*
Y532000D01*
X269504Y549327D02*
X282496D01*
X277969Y515071D02*
X295007D01*
X442429Y527303D02*
Y535500D01*
Y516493D02*
Y522721D01*
X423423Y516493D02*
X442429D01*
Y522721D02*
Y527303D01*
Y535500D02*
Y537469D01*
X408173Y516827D02*
X408507Y516493D01*
X408173Y516827D02*
Y529004D01*
Y554507D02*
X423423D01*
X408173Y541996D02*
Y554507D01*
X408507Y516493D02*
X423423D01*
Y554507D02*
X425500D01*
X442429D01*
X408173Y529004D02*
Y541996D01*
X442429Y537469D02*
Y554507D01*
X478768Y244268D02*
X486732Y252232D01*
X470000Y244268D02*
X478768D01*
X461268D02*
X470000D01*
X453268Y252268D02*
X461268Y244268D01*
X453268Y252268D02*
Y277732D01*
X486697D01*
X486732Y252232D02*
Y277768D01*
X396768Y193768D02*
X404732Y201732D01*
X413500D01*
X422232D01*
X430232Y193732D01*
Y168268D02*
Y193732D01*
X396803Y168268D02*
X430232D01*
X396768Y168232D02*
Y193768D01*
X264000Y519500D02*
X265000Y520500D01*
X266999D01*
X267999Y521499D01*
X284000Y519500D02*
X285000Y520500D01*
X286999D01*
X287999Y521499D01*
X264000Y543000D02*
X267999D01*
X284000Y543499D02*
X287999D01*
X285999Y545499D02*
Y541500D01*
X438000Y523500D02*
X437000Y524500D01*
Y526499D01*
X436001Y527499D01*
X438000Y543500D02*
X437000Y544500D01*
Y546499D01*
X436001Y547499D01*
X414500Y523500D02*
Y527499D01*
X414001Y543500D02*
Y547499D01*
X412001Y545499D02*
X416000D01*
X238600Y303398D02*
Y298400D01*
X239600Y297400D01*
X241599D01*
X242599Y298400D01*
Y303398D01*
X244598Y297400D02*
X246597D01*
X245598D01*
Y303398D01*
X244598Y302398D01*
X430300Y630498D02*
X434299D01*
X432299D01*
Y624500D01*
X440297Y630498D02*
X436298D01*
Y627499D01*
X438297Y628499D01*
X439297D01*
X440297Y627499D01*
Y625500D01*
X439297Y624500D01*
X437298D01*
X436298Y625500D01*
X434200Y720198D02*
X438199D01*
X436199D01*
Y714200D01*
X443197D02*
Y720198D01*
X440198Y717199D01*
X444197D01*
X267300Y671898D02*
X271299D01*
X269299D01*
Y665900D01*
X273298Y670898D02*
X274298Y671898D01*
X276297D01*
X277297Y670898D01*
Y669899D01*
X276297Y668899D01*
X275297D01*
X276297D01*
X277297Y667899D01*
Y666900D01*
X276297Y665900D01*
X274298D01*
X273298Y666900D01*
X361800Y628498D02*
X365799D01*
X363799D01*
Y622500D01*
X371797D02*
X367798D01*
X371797Y626499D01*
Y627498D01*
X370797Y628498D01*
X368798D01*
X367798Y627498D01*
X525200Y371198D02*
X529199D01*
X527199D01*
Y365200D01*
X531198D02*
X533197D01*
X532198D01*
Y371198D01*
X531198Y370198D01*
X496300Y566900D02*
Y572898D01*
X499299D01*
X500299Y571898D01*
Y569899D01*
X499299Y568899D01*
X496300D01*
X498299D02*
X500299Y566900D01*
X506297Y572898D02*
X502298D01*
Y566900D01*
X506297D01*
X502298Y569899D02*
X504297D01*
X508296Y566900D02*
X510295D01*
X509296D01*
Y572898D01*
X508296Y571898D01*
X89300Y361800D02*
Y367798D01*
X92299D01*
X93299Y366798D01*
Y364799D01*
X92299Y363799D01*
X89300D01*
X91299D02*
X93299Y361800D01*
X99297D02*
X95298D01*
X99297Y365799D01*
Y366798D01*
X98297Y367798D01*
X96298D01*
X95298Y366798D01*
X105295Y361800D02*
X101296D01*
X105295Y365799D01*
Y366798D01*
X104295Y367798D01*
X102296D01*
X101296Y366798D01*
X88000Y326300D02*
Y332298D01*
X90999D01*
X91999Y331298D01*
Y329299D01*
X90999Y328299D01*
X88000D01*
X89999D02*
X91999Y326300D01*
X97997D02*
X93998D01*
X97997Y330299D01*
Y331298D01*
X96997Y332298D01*
X94998D01*
X93998Y331298D01*
X99996Y326300D02*
X101996D01*
X100996D01*
Y332298D01*
X99996Y331298D01*
X363700Y733700D02*
Y739698D01*
X366699D01*
X367699Y738698D01*
Y736699D01*
X366699Y735699D01*
X363700D01*
X365699D02*
X367699Y733700D01*
X373697D02*
X369698D01*
X373697Y737699D01*
Y738698D01*
X372697Y739698D01*
X370698D01*
X369698Y738698D01*
X375696D02*
X376696Y739698D01*
X378695D01*
X379695Y738698D01*
Y734700D01*
X378695Y733700D01*
X376696D01*
X375696Y734700D01*
Y738698D01*
X87500Y278800D02*
Y284798D01*
X90499D01*
X91499Y283798D01*
Y281799D01*
X90499Y280799D01*
X87500D01*
X89499D02*
X91499Y278800D01*
X93498D02*
X95497D01*
X94498D01*
Y284798D01*
X93498Y283798D01*
X98496Y279800D02*
X99496Y278800D01*
X101496D01*
X102495Y279800D01*
Y283798D01*
X101496Y284798D01*
X99496D01*
X98496Y283798D01*
Y282799D01*
X99496Y281799D01*
X102495D01*
X363700Y686000D02*
Y691998D01*
X366699D01*
X367699Y690998D01*
Y688999D01*
X366699Y687999D01*
X363700D01*
X365699D02*
X367699Y686000D01*
X369698D02*
X371697D01*
X370698D01*
Y691998D01*
X369698Y690998D01*
X374696D02*
X375696Y691998D01*
X377695D01*
X378695Y690998D01*
Y689999D01*
X377695Y688999D01*
X378695Y687999D01*
Y687000D01*
X377695Y686000D01*
X375696D01*
X374696Y687000D01*
Y687999D01*
X375696Y688999D01*
X374696Y689999D01*
Y690998D01*
X375696Y688999D02*
X377695D01*
X363700Y792500D02*
Y798498D01*
X366699D01*
X367699Y797498D01*
Y795499D01*
X366699Y794499D01*
X363700D01*
X365699D02*
X367699Y792500D01*
X369698D02*
X371697D01*
X370698D01*
Y798498D01*
X369698Y797498D01*
X374696Y798498D02*
X378695D01*
Y797498D01*
X374696Y793500D01*
Y792500D01*
X199000Y182300D02*
Y188298D01*
X201999D01*
X202999Y187298D01*
Y185299D01*
X201999Y184299D01*
X199000D01*
X200999D02*
X202999Y182300D01*
X204998D02*
X206997D01*
X205998D01*
Y188298D01*
X204998Y187298D01*
X213995Y188298D02*
X211996Y187298D01*
X209996Y185299D01*
Y183300D01*
X210996Y182300D01*
X212996D01*
X213995Y183300D01*
Y184299D01*
X212996Y185299D01*
X209996D01*
X318000Y132300D02*
Y138298D01*
X320999D01*
X321999Y137298D01*
Y135299D01*
X320999Y134299D01*
X318000D01*
X319999D02*
X321999Y132300D01*
X323998D02*
X325997D01*
X324998D01*
Y138298D01*
X323998Y137298D01*
X332995Y138298D02*
X328996D01*
Y135299D01*
X330996Y136299D01*
X331996D01*
X332995Y135299D01*
Y133300D01*
X331996Y132300D01*
X329996D01*
X328996Y133300D01*
X274300Y94800D02*
Y100798D01*
X277299D01*
X278299Y99798D01*
Y97799D01*
X277299Y96799D01*
X274300D01*
X276299D02*
X278299Y94800D01*
X280298D02*
X282297D01*
X281298D01*
Y100798D01*
X280298Y99798D01*
X288296Y94800D02*
Y100798D01*
X285296Y97799D01*
X289295D01*
X317500Y103300D02*
Y109298D01*
X320499D01*
X321499Y108298D01*
Y106299D01*
X320499Y105299D01*
X317500D01*
X319499D02*
X321499Y103300D01*
X323498D02*
X325497D01*
X324498D01*
Y109298D01*
X323498Y108298D01*
X328496D02*
X329496Y109298D01*
X331495D01*
X332495Y108298D01*
Y107299D01*
X331495Y106299D01*
X330496D01*
X331495D01*
X332495Y105299D01*
Y104300D01*
X331495Y103300D01*
X329496D01*
X328496Y104300D01*
X273800Y56800D02*
Y62798D01*
X276799D01*
X277799Y61798D01*
Y59799D01*
X276799Y58799D01*
X273800D01*
X275799D02*
X277799Y56800D01*
X279798D02*
X281797D01*
X280798D01*
Y62798D01*
X279798Y61798D01*
X288795Y56800D02*
X284796D01*
X288795Y60799D01*
Y61798D01*
X287795Y62798D01*
X285796D01*
X284796Y61798D01*
X274500Y23800D02*
Y29798D01*
X277499D01*
X278499Y28798D01*
Y26799D01*
X277499Y25799D01*
X274500D01*
X276499D02*
X278499Y23800D01*
X280498D02*
X282497D01*
X281498D01*
Y29798D01*
X280498Y28798D01*
X285496Y23800D02*
X287496D01*
X286496D01*
Y29798D01*
X285496Y28798D01*
X465700Y361500D02*
Y367498D01*
X468699D01*
X469699Y366498D01*
Y364499D01*
X468699Y363499D01*
X465700D01*
X467699D02*
X469699Y361500D01*
X471698D02*
X473697D01*
X472698D01*
Y367498D01*
X471698Y366498D01*
X476696D02*
X477696Y367498D01*
X479696D01*
X480695Y366498D01*
Y362500D01*
X479696Y361500D01*
X477696D01*
X476696Y362500D01*
Y366498D01*
X318000Y56800D02*
Y62798D01*
X320999D01*
X321999Y61798D01*
Y59799D01*
X320999Y58799D01*
X318000D01*
X319999D02*
X321999Y56800D01*
X323998Y57800D02*
X324998Y56800D01*
X326997D01*
X327997Y57800D01*
Y61798D01*
X326997Y62798D01*
X324998D01*
X323998Y61798D01*
Y60799D01*
X324998Y59799D01*
X327997D01*
X474300Y112800D02*
Y118798D01*
X477299D01*
X478299Y117798D01*
Y115799D01*
X477299Y114799D01*
X474300D01*
X476299D02*
X478299Y112800D01*
X480298Y117798D02*
X481298Y118798D01*
X483297D01*
X484297Y117798D01*
Y116799D01*
X483297Y115799D01*
X484297Y114799D01*
Y113800D01*
X483297Y112800D01*
X481298D01*
X480298Y113800D01*
Y114799D01*
X481298Y115799D01*
X480298Y116799D01*
Y117798D01*
X481298Y115799D02*
X483297D01*
X526000Y322300D02*
Y328298D01*
X528999D01*
X529999Y327298D01*
Y325299D01*
X528999Y324299D01*
X526000D01*
X527999D02*
X529999Y322300D01*
X531998Y328298D02*
X535997D01*
Y327298D01*
X531998Y323300D01*
Y322300D01*
X233800Y465300D02*
Y471298D01*
X236799D01*
X237799Y470298D01*
Y468299D01*
X236799Y467299D01*
X233800D01*
X235799D02*
X237799Y465300D01*
X243797Y471298D02*
X241797Y470298D01*
X239798Y468299D01*
Y466300D01*
X240798Y465300D01*
X242797D01*
X243797Y466300D01*
Y467299D01*
X242797Y468299D01*
X239798D01*
X474800Y194800D02*
Y200798D01*
X477799D01*
X478799Y199798D01*
Y197799D01*
X477799Y196799D01*
X474800D01*
X476799D02*
X478799Y194800D01*
X484797Y200798D02*
X480798D01*
Y197799D01*
X482797Y198799D01*
X483797D01*
X484797Y197799D01*
Y195800D01*
X483797Y194800D01*
X481798D01*
X480798Y195800D01*
X473300Y36800D02*
Y42798D01*
X476299D01*
X477299Y41798D01*
Y39799D01*
X476299Y38799D01*
X473300D01*
X475299D02*
X477299Y36800D01*
X482297D02*
Y42798D01*
X479298Y39799D01*
X483297D01*
X311500Y466300D02*
Y472298D01*
X314499D01*
X315499Y471298D01*
Y469299D01*
X314499Y468299D01*
X311500D01*
X313499D02*
X315499Y466300D01*
X317498Y471298D02*
X318498Y472298D01*
X320497D01*
X321497Y471298D01*
Y470299D01*
X320497Y469299D01*
X319497D01*
X320497D01*
X321497Y468299D01*
Y467300D01*
X320497Y466300D01*
X318498D01*
X317498Y467300D01*
X317500Y25800D02*
Y31798D01*
X320499D01*
X321499Y30798D01*
Y28799D01*
X320499Y27799D01*
X317500D01*
X319499D02*
X321499Y25800D01*
X327497D02*
X323498D01*
X327497Y29799D01*
Y30798D01*
X326497Y31798D01*
X324498D01*
X323498Y30798D01*
X473500Y148300D02*
Y154298D01*
X476499D01*
X477499Y153298D01*
Y151299D01*
X476499Y150299D01*
X473500D01*
X475499D02*
X477499Y148300D01*
X479498D02*
X481497D01*
X480498D01*
Y154298D01*
X479498Y153298D01*
X227100Y750998D02*
Y745000D01*
X231099D01*
X237097D02*
X233098D01*
X237097Y748999D01*
Y749998D01*
X236097Y750998D01*
X234098D01*
X233098Y749998D01*
X273600Y188298D02*
Y182300D01*
X277599D01*
X279598D02*
X281597D01*
X280598D01*
Y188298D01*
X279598Y187298D01*
X399600Y56198D02*
Y50200D01*
Y52199D01*
X403599Y56198D01*
X400600Y53199D01*
X403599Y50200D01*
X405598D02*
X407597D01*
X406598D01*
Y56198D01*
X405598Y55198D01*
X410596D02*
X411596Y56198D01*
X413595D01*
X414595Y55198D01*
Y54199D01*
X413595Y53199D01*
X412596D01*
X413595D01*
X414595Y52199D01*
Y51200D01*
X413595Y50200D01*
X411596D01*
X410596Y51200D01*
X158600Y378798D02*
Y372800D01*
Y374799D01*
X162599Y378798D01*
X159600Y375799D01*
X162599Y372800D01*
X164598D02*
X166597D01*
X165598D01*
Y378798D01*
X164598Y377798D01*
X173595Y372800D02*
X169596D01*
X173595Y376799D01*
Y377798D01*
X172596Y378798D01*
X170596D01*
X169596Y377798D01*
X340600Y373098D02*
Y367100D01*
Y369099D01*
X344599Y373098D01*
X341600Y370099D01*
X344599Y367100D01*
X346598D02*
X348597D01*
X347598D01*
Y373098D01*
X346598Y372098D01*
X351596Y367100D02*
X353596D01*
X352596D01*
Y373098D01*
X351596Y372098D01*
X233600Y366398D02*
Y360400D01*
Y362399D01*
X237599Y366398D01*
X234600Y363399D01*
X237599Y360400D01*
X239598D02*
X241597D01*
X240598D01*
Y366398D01*
X239598Y365398D01*
X244596D02*
X245596Y366398D01*
X247596D01*
X248595Y365398D01*
Y361400D01*
X247596Y360400D01*
X245596D01*
X244596Y361400D01*
Y365398D01*
X351100Y253898D02*
Y247900D01*
Y249899D01*
X355099Y253898D01*
X352100Y250899D01*
X355099Y247900D01*
X357098Y248900D02*
X358098Y247900D01*
X360097D01*
X361097Y248900D01*
Y252898D01*
X360097Y253898D01*
X358098D01*
X357098Y252898D01*
Y251899D01*
X358098Y250899D01*
X361097D01*
X137400Y829198D02*
Y823200D01*
Y825199D01*
X141399Y829198D01*
X138400Y826199D01*
X141399Y823200D01*
X143398Y828198D02*
X144398Y829198D01*
X146397D01*
X147397Y828198D01*
Y827199D01*
X146397Y826199D01*
X147397Y825199D01*
Y824200D01*
X146397Y823200D01*
X144398D01*
X143398Y824200D01*
Y825199D01*
X144398Y826199D01*
X143398Y827199D01*
Y828198D01*
X144398Y826199D02*
X146397D01*
X159600Y289398D02*
Y283400D01*
Y285399D01*
X163599Y289398D01*
X160600Y286399D01*
X163599Y283400D01*
X165598Y289398D02*
X169597D01*
Y288398D01*
X165598Y284400D01*
Y283400D01*
X389600Y339398D02*
Y333400D01*
Y335399D01*
X393599Y339398D01*
X390600Y336399D01*
X393599Y333400D01*
X399597Y339398D02*
X397597Y338398D01*
X395598Y336399D01*
Y334400D01*
X396598Y333400D01*
X398597D01*
X399597Y334400D01*
Y335399D01*
X398597Y336399D01*
X395598D01*
X244100Y225898D02*
Y219900D01*
Y221899D01*
X248099Y225898D01*
X245100Y222899D01*
X248099Y219900D01*
X254097Y225898D02*
X250098D01*
Y222899D01*
X252097Y223899D01*
X253097D01*
X254097Y222899D01*
Y220900D01*
X253097Y219900D01*
X251098D01*
X250098Y220900D01*
X350600Y300398D02*
Y294400D01*
Y296399D01*
X354599Y300398D01*
X351600Y297399D01*
X354599Y294400D01*
X359597D02*
Y300398D01*
X356598Y297399D01*
X360597D01*
X511800Y821598D02*
Y815600D01*
Y817599D01*
X515799Y821598D01*
X512800Y818599D01*
X515799Y815600D01*
X521797D02*
X517798D01*
X521797Y819599D01*
Y820598D01*
X520797Y821598D01*
X518798D01*
X517798Y820598D01*
X513300Y702598D02*
Y696600D01*
Y698599D01*
X517299Y702598D01*
X514300Y699599D01*
X517299Y696600D01*
X519298D02*
X521297D01*
X520298D01*
Y702598D01*
X519298Y701598D01*
X416800Y118898D02*
X418799D01*
X417800D01*
Y112900D01*
X416800D01*
X418799D01*
X425797Y117898D02*
X424797Y118898D01*
X422798D01*
X421798Y117898D01*
Y113900D01*
X422798Y112900D01*
X424797D01*
X425797Y113900D01*
X431795Y112900D02*
X427796D01*
X431795Y116899D01*
Y117898D01*
X430795Y118898D01*
X428796D01*
X427796Y117898D01*
X433794Y118898D02*
Y112900D01*
X436794D01*
X437793Y113900D01*
Y114899D01*
X436794Y115899D01*
X433794D01*
X436794D01*
X437793Y116899D01*
Y117898D01*
X436794Y118898D01*
X433794D01*
X171600Y82698D02*
X173599D01*
X172600D01*
Y76700D01*
X171600D01*
X173599D01*
X180597Y81698D02*
X179597Y82698D01*
X177598D01*
X176598Y81698D01*
Y77700D01*
X177598Y76700D01*
X179597D01*
X180597Y77700D01*
X186595Y76700D02*
X182596D01*
X186595Y80699D01*
Y81698D01*
X185596Y82698D01*
X183596D01*
X182596Y81698D01*
X188594Y76700D02*
Y80699D01*
X190594Y82698D01*
X192593Y80699D01*
Y76700D01*
Y79699D01*
X188594D01*
X89800Y560198D02*
X91799D01*
X90800D01*
Y554200D01*
X89800D01*
X91799D01*
X98797Y559198D02*
X97797Y560198D01*
X95798D01*
X94798Y559198D01*
Y555200D01*
X95798Y554200D01*
X97797D01*
X98797Y555200D01*
X100796Y554200D02*
X102796D01*
X101796D01*
Y560198D01*
X100796Y559198D01*
X316400Y407198D02*
Y401200D01*
X319399D01*
X320399Y402200D01*
Y406198D01*
X319399Y407198D01*
X316400D01*
X322398Y406198D02*
X323398Y407198D01*
X325397D01*
X326397Y406198D01*
Y405199D01*
X325397Y404199D01*
X324397D01*
X325397D01*
X326397Y403199D01*
Y402200D01*
X325397Y401200D01*
X323398D01*
X322398Y402200D01*
X457300Y412098D02*
Y406100D01*
X460299D01*
X461299Y407100D01*
Y411098D01*
X460299Y412098D01*
X457300D01*
X467297Y406100D02*
X463298D01*
X467297Y410099D01*
Y411098D01*
X466297Y412098D01*
X464298D01*
X463298Y411098D01*
X514800Y425098D02*
Y419100D01*
X517799D01*
X518799Y420100D01*
Y424098D01*
X517799Y425098D01*
X514800D01*
X520798Y419100D02*
X522797D01*
X521798D01*
Y425098D01*
X520798Y424098D01*
X356199Y407398D02*
X355199Y408398D01*
X353200D01*
X352200Y407398D01*
Y403400D01*
X353200Y402400D01*
X355199D01*
X356199Y403400D01*
X358198Y402400D02*
X360197D01*
X359198D01*
Y408398D01*
X358198Y407398D01*
X366196Y402400D02*
Y408398D01*
X363196Y405399D01*
X367195D01*
X359599Y50298D02*
X358599Y51298D01*
X356600D01*
X355600Y50298D01*
Y46300D01*
X356600Y45300D01*
X358599D01*
X359599Y46300D01*
X361598Y45300D02*
X363597D01*
X362598D01*
Y51298D01*
X361598Y50298D01*
X366596D02*
X367596Y51298D01*
X369596D01*
X370595Y50298D01*
Y49299D01*
X369596Y48299D01*
X368596D01*
X369596D01*
X370595Y47299D01*
Y46300D01*
X369596Y45300D01*
X367596D01*
X366596Y46300D01*
X276899Y137798D02*
X275899Y138798D01*
X273900D01*
X272900Y137798D01*
Y133800D01*
X273900Y132800D01*
X275899D01*
X276899Y133800D01*
X278898Y132800D02*
X280897D01*
X279898D01*
Y138798D01*
X278898Y137798D01*
X287895Y132800D02*
X283896D01*
X287895Y136799D01*
Y137798D01*
X286895Y138798D01*
X284896D01*
X283896Y137798D01*
X333099Y187298D02*
X332099Y188298D01*
X330100D01*
X329100Y187298D01*
Y183300D01*
X330100Y182300D01*
X332099D01*
X333099Y183300D01*
X335098Y182300D02*
X337097D01*
X336098D01*
Y188298D01*
X335098Y187298D01*
X340096Y182300D02*
X342096D01*
X341096D01*
Y188298D01*
X340096Y187298D01*
X401299Y210898D02*
X400299Y211898D01*
X398300D01*
X397300Y210898D01*
Y206900D01*
X398300Y205900D01*
X400299D01*
X401299Y206900D01*
X403298Y205900D02*
X405297D01*
X404298D01*
Y211898D01*
X403298Y210898D01*
X408296D02*
X409296Y211898D01*
X411296D01*
X412295Y210898D01*
Y206900D01*
X411296Y205900D01*
X409296D01*
X408296Y206900D01*
Y210898D01*
X93099Y445798D02*
X92099Y446798D01*
X90100D01*
X89100Y445798D01*
Y441800D01*
X90100Y440800D01*
X92099D01*
X93099Y441800D01*
X95098D02*
X96098Y440800D01*
X98097D01*
X99097Y441800D01*
Y445798D01*
X98097Y446798D01*
X96098D01*
X95098Y445798D01*
Y444799D01*
X96098Y443799D01*
X99097D01*
X93199Y408798D02*
X92199Y409798D01*
X90200D01*
X89200Y408798D01*
Y404800D01*
X90200Y403800D01*
X92199D01*
X93199Y404800D01*
X95198Y408798D02*
X96198Y409798D01*
X98197D01*
X99197Y408798D01*
Y407799D01*
X98197Y406799D01*
X99197Y405799D01*
Y404800D01*
X98197Y403800D01*
X96198D01*
X95198Y404800D01*
Y405799D01*
X96198Y406799D01*
X95198Y407799D01*
Y408798D01*
X96198Y406799D02*
X98197D01*
X477099Y80298D02*
X476099Y81298D01*
X474100D01*
X473100Y80298D01*
Y76300D01*
X474100Y75300D01*
X476099D01*
X477099Y76300D01*
X479098Y81298D02*
X483097D01*
Y80298D01*
X479098Y76300D01*
Y75300D01*
X527699Y198298D02*
X526699Y199298D01*
X524700D01*
X523700Y198298D01*
Y194300D01*
X524700Y193300D01*
X526699D01*
X527699Y194300D01*
X533697Y199298D02*
X531697Y198298D01*
X529698Y196299D01*
Y194300D01*
X530698Y193300D01*
X532697D01*
X533697Y194300D01*
Y195299D01*
X532697Y196299D01*
X529698D01*
X95099Y640698D02*
X94099Y641698D01*
X92100D01*
X91100Y640698D01*
Y636700D01*
X92100Y635700D01*
X94099D01*
X95099Y636700D01*
X101097Y641698D02*
X97098D01*
Y638699D01*
X99097Y639699D01*
X100097D01*
X101097Y638699D01*
Y636700D01*
X100097Y635700D01*
X98098D01*
X97098Y636700D01*
X96399Y724198D02*
X95399Y725198D01*
X93400D01*
X92400Y724198D01*
Y720200D01*
X93400Y719200D01*
X95399D01*
X96399Y720200D01*
X101397Y719200D02*
Y725198D01*
X98398Y722199D01*
X102397D01*
X527699Y254798D02*
X526699Y255798D01*
X524700D01*
X523700Y254798D01*
Y250800D01*
X524700Y249800D01*
X526699D01*
X527699Y250800D01*
X529698Y254798D02*
X530698Y255798D01*
X532697D01*
X533697Y254798D01*
Y253799D01*
X532697Y252799D01*
X531697D01*
X532697D01*
X533697Y251799D01*
Y250800D01*
X532697Y249800D01*
X530698D01*
X529698Y250800D01*
X457799Y286898D02*
X456799Y287898D01*
X454800D01*
X453800Y286898D01*
Y282900D01*
X454800Y281900D01*
X456799D01*
X457799Y282900D01*
X463797Y281900D02*
X459798D01*
X463797Y285899D01*
Y286898D01*
X462797Y287898D01*
X460798D01*
X459798Y286898D01*
X413599Y457198D02*
X412599Y458198D01*
X410600D01*
X409600Y457198D01*
Y453200D01*
X410600Y452200D01*
X412599D01*
X413599Y453200D01*
X415598Y452200D02*
X417597D01*
X416598D01*
Y458198D01*
X415598Y457198D01*
X257500Y561898D02*
Y555900D01*
X260499D01*
X261499Y556900D01*
Y557899D01*
X260499Y558899D01*
X257500D01*
X260499D01*
X261499Y559899D01*
Y560898D01*
X260499Y561898D01*
X257500D01*
X267497Y555900D02*
X263498D01*
X267497Y559899D01*
Y560898D01*
X266497Y561898D01*
X264498D01*
X263498Y560898D01*
X405600Y563998D02*
Y558000D01*
X408599D01*
X409599Y559000D01*
Y559999D01*
X408599Y560999D01*
X405600D01*
X408599D01*
X409599Y561999D01*
Y562998D01*
X408599Y563998D01*
X405600D01*
X411598Y558000D02*
X413597D01*
X412598D01*
Y563998D01*
X411598Y562998D01*
D18*
X171000Y365668D02*
Y369000D01*
X174332Y365668D01*
X175165D01*
X175998Y366501D01*
Y368167D01*
X175165Y369000D01*
X161000Y367000D02*
Y365334D01*
Y366167D01*
X165998D01*
X165165Y367000D01*
X161833Y313000D02*
X161000Y312167D01*
Y310501D01*
X161833Y309668D01*
X165165D01*
X165998Y310501D01*
Y312167D01*
X165165Y313000D01*
X164332D01*
X163499Y312167D01*
Y309668D01*
X171000Y313000D02*
Y311334D01*
Y312167D01*
X175998D01*
X175165Y313000D01*
Y308835D02*
X175998Y308002D01*
Y306335D01*
X175165Y305502D01*
X171833D01*
X171000Y306335D01*
Y308002D01*
X171833Y308835D01*
X175165D01*
X357000Y326000D02*
Y327666D01*
Y326833D01*
X352002D01*
X352835Y326000D01*
X347000Y327332D02*
Y324000D01*
X343668Y327332D01*
X342835D01*
X342002Y326499D01*
Y324833D01*
X342835Y324000D01*
X352002Y363332D02*
Y360000D01*
X354501D01*
X353668Y361666D01*
Y362499D01*
X354501Y363332D01*
X356167D01*
X357000Y362499D01*
Y360833D01*
X356167Y360000D01*
X342002Y363332D02*
X342835Y361666D01*
X344501Y360000D01*
X346167D01*
X347000Y360833D01*
Y362499D01*
X346167Y363332D01*
X345334D01*
X344501Y362499D01*
Y360000D01*
M02*
